<?xml version="1.0" encoding="utf-8"?>
<!-- Generator: Adobe Illustrator 16.0.0, SVG Export Plug-In . SVG Version: 6.00 Build 0)  -->
<!DOCTYPE svg PUBLIC "-//W3C//DTD SVG 1.1//EN" "http://www.w3.org/Graphics/SVG/1.1/DTD/svg11.dtd">
<svg version="1.1" id="Calque_1" xmlns="http://www.w3.org/2000/svg" xmlns:xlink="http://www.w3.org/1999/xlink" x="0px" y="0px"
	 width="1045px" height="32px" viewBox="0 0 1045 32" enable-background="new 0 0 1045 32" xml:space="preserve">
<path fill="none" stroke="#FF0000" stroke-width="0.995" stroke-miterlimit="5" d="M23.082,7.939h-4.746
	c-1.065,0-1.93,0.779-1.93,1.74v15.663c0,0.963,0.863,1.74,1.93,1.74h11.498c1.066,0,1.931-0.777,1.931-1.74v-7.996"/>
<path fill="none" stroke="#FF0000" stroke-linecap="round" stroke-linejoin="round" stroke-miterlimit="5" d="M27.523,9.471v6.035
	 M30.525,12.488h-6.004 M131.044,18.436v4.215 M133.14,20.542h-4.193"/>
<path fill="#FF0000" d="M98.494,19.631c0,0.28-0.049,0.555-0.147,0.823c-0.099,0.269-0.239,0.493-0.421,0.676
	c-0.25,0.247-0.529,0.433-0.836,0.562c-0.307,0.125-0.689,0.188-1.146,0.188h-1.008v2.042H93.32v-6.27h2.66
	c0.398,0,0.734,0.033,1.008,0.104c0.274,0.069,0.517,0.172,0.727,0.313c0.253,0.164,0.445,0.377,0.579,0.635
	C98.426,18.959,98.494,19.27,98.494,19.631L98.494,19.631z M96.822,19.667c0-0.177-0.047-0.329-0.144-0.456
	c-0.095-0.127-0.206-0.216-0.332-0.268c-0.169-0.066-0.333-0.104-0.493-0.11s-0.373-0.011-0.64-0.011h-0.278v1.873H95.4
	c0.274,0,0.5-0.019,0.678-0.051c0.18-0.033,0.328-0.102,0.449-0.201c0.104-0.09,0.18-0.196,0.226-0.32
	C96.798,19.998,96.822,19.846,96.822,19.667L96.822,19.667z"/>
<path fill="#FF0000" d="M105.562,20.793c0,0.584-0.133,1.105-0.4,1.568c-0.267,0.462-0.604,0.813-1.01,1.063
	c-0.306,0.186-0.642,0.314-1.007,0.387c-0.364,0.073-0.797,0.11-1.296,0.11h-2.211v-6.269h2.273c0.511,0,0.951,0.043,1.322,0.127
	c0.371,0.087,0.682,0.207,0.935,0.365c0.433,0.264,0.772,0.619,1.021,1.065C105.439,19.66,105.562,20.186,105.562,20.793
	L105.562,20.793z M103.89,20.779c0-0.411-0.074-0.766-0.225-1.059c-0.15-0.295-0.389-0.521-0.713-0.688
	c-0.166-0.081-0.336-0.138-0.508-0.166c-0.172-0.03-0.434-0.046-0.781-0.046h-0.408v3.925h0.408c0.385,0,0.666-0.019,0.847-0.052
	c0.179-0.035,0.354-0.102,0.526-0.192c0.293-0.168,0.511-0.394,0.647-0.676C103.822,21.544,103.89,21.195,103.89,20.779
	L103.89,20.779z"/>
<polygon fill="#FF0000" points="111.289,18.865 108.404,18.865 108.404,20.031 111.078,20.031 111.078,21.243 108.404,21.243 
	108.404,23.921 106.795,23.921 106.795,17.652 111.289,17.652 "/>
<path fill="none" stroke="#FF0000" stroke-miterlimit="10" d="M139.336,20.71c1.144,4.015,4.829,6.956,9.21,6.956
	c5.292,0,9.583-4.29,9.583-9.583c0-5.292-4.291-9.583-9.583-9.583c-2.348,0-4.496,0.848-6.163,2.249"/>
<path fill="none" stroke="#FF0000" stroke-linecap="round" stroke-linejoin="round" stroke-miterlimit="10" d="M143.882,6.225
	c-0.018,0.026-0.039,0.049-0.051,0.08l-1.625,4.062c-0.084,0.208,0.018,0.442,0.225,0.526l4.063,1.625
	c0.029,0.012,0.062,0.012,0.093,0.017 M169.84,13.736l1.416,11.059 M174.625,13.736v11.059 M179.546,13.736l-1.323,11.059"/>
<path fill="none" stroke="#FF0000" stroke-miterlimit="10" d="M183.529,10.568h0.569c0.204,0,0.369-0.166,0.369-0.369V8.538
	c0-0.204-0.165-0.369-0.369-0.369h-18.95c-0.203,0-0.369,0.165-0.369,0.369v1.661c0,0.203,0.166,0.369,0.369,0.369h0.432
	 M176.792,8.031V7.2c0-0.204-0.165-1.369-0.369-1.369h-3.6c-0.203,0-0.369,1.165-0.369,1.369v0.831c0,0.046,0.011,0.091,0.027,0.138
	h4.283C176.781,8.122,176.792,8.077,176.792,8.031L176.792,8.031z"/>
<path fill="none" stroke="#FF0000" stroke-linecap="round" stroke-linejoin="round" stroke-miterlimit="10" d="M166.302,26.917
	c0,0.204,0.165,0.369,0.369,0.369h15.766c0.204,0,0.369-0.165,0.369-0.369l0.723-16.349H165.58L166.302,26.917L166.302,26.917z"/>
<line fill="none" stroke="#FF0000" stroke-miterlimit="10" x1="165.58" y1="10.568" x2="183.529" y2="10.568"/>
<path fill="none" stroke="#FF0000" stroke-linecap="round" stroke-linejoin="round" stroke-miterlimit="10" d="M223.197,19.54
	l-11.129-9.563c-0.009,0.039-0.024,0.073-0.024,0.113v15.393c0,0.289,0.26,0.525,0.581,0.525h21.967
	c0.322,0,0.582-0.236,0.582-0.525V10.09c0-0.04-0.016-0.074-0.025-0.113L224.02,19.54C223.792,19.734,223.424,19.734,223.197,19.54
	L223.197,19.54z"/>
<path fill="none" stroke="#FF0000" stroke-width="0.5" stroke-linecap="round" stroke-linejoin="round" stroke-miterlimit="10" d="
	M212.068,9.979c0.06-0.236,0.279-0.416,0.557-0.416h21.967c0.277,0,0.499,0.18,0.557,0.416"/>
<path fill="none" stroke="#FF0000" stroke-linecap="round" stroke-linejoin="round" stroke-miterlimit="10" d="M234.591,9.563
	h-21.967c-0.277,0-0.498,0.18-0.557,0.416l11.129,9.563c0.228,0.194,0.596,0.194,0.822,0l11.129-9.563
	C235.089,9.742,234.869,9.563,234.591,9.563L234.591,9.563z M226.728,17.322l7.174,8.563 M221.179,17.807l-6.77,8.08 M268.16,10.37
	h16 M268.16,12.848h16 M268.16,15.434h16 M268.16,18.068h16 M268.16,20.448h16 M268.16,22.926h16 M264.16,10.37h1.129
	 M264.16,12.848h1.129 M264.16,15.434h1.129 M264.16,18.068h1.129 M264.16,20.448h1.129 M264.16,22.926h1.129 M295.547,11.777
	h13.696 M297.41,14.255h11.834 M298.511,16.84h10.732 M298.511,19.477h10.732 M297.41,21.855h11.834 M295.547,24.333h13.696
	 M296.475,17.702l-7.526-7.528v15.762l7.526-7.524C296.67,18.214,296.67,17.896,296.475,17.702L296.475,17.702z M327.644,24.334
	l-13.693-0.001 M325.781,21.855h-11.832 M324.68,19.271H313.95 M324.68,16.635H313.95 M325.781,14.255h-11.832 M327.644,11.777
	H313.95 M326.717,18.408l7.526,7.527V10.174l-7.526,7.527C326.521,17.896,326.521,18.213,326.717,18.408L326.717,18.408z"/>
<path fill="none" stroke="#FF0000" stroke-miterlimit="10" d="M355.865,26.417c-0.275,0-0.551-0.112-0.748-0.337l-5.451-6.146
	c-0.367-0.412-0.329-1.045,0.084-1.41c0.412-0.365,1.045-0.33,1.412,0.086l5.451,6.146c0.367,0.413,0.328,1.045-0.084,1.411
	C356.338,26.334,356.101,26.417,355.865,26.417L355.865,26.417z"/>
<path fill="none" stroke="#FF0000" stroke-linecap="round" stroke-linejoin="round" stroke-miterlimit="10" d="M391.468,10.578
	l6.063,6.047l0.084,8.557l4.416,2.363v-10.92l5.813-6.047H391.468L391.468,10.578z M419.906,27c0,0.275-0.226,0.5-0.5,0.5h-1.5
	c-0.275,0-0.5-0.225-0.5-0.5V8c0-0.275,0.225-0.5,0.5-0.5h1.5c0.274,0,0.5,0.225,0.5,0.5V27L419.906,27z M425.156,27
	c0,0.275-0.226,0.5-0.5,0.5h-1.5c-0.275,0-0.5-0.225-0.5-0.5V8c0-0.275,0.225-0.5,0.5-0.5h1.5c0.274,0,0.5,0.225,0.5,0.5V27
	L425.156,27z M430.406,27c0,0.275-0.226,0.5-0.5,0.5h-1.5c-0.275,0-0.5-0.225-0.5-0.5V8c0-0.275,0.225-0.5,0.5-0.5h1.5
	c0.274,0,0.5,0.225,0.5,0.5V27L430.406,27z M456.06,9.566c0,0.181-0.146,0.328-0.326,0.328h-13.846
	c-0.182,0-0.328-0.147-0.328-0.328V7.63c0-0.181,0.146-0.328,0.328-0.328h13.846c0.182,0,0.326,0.147,0.326,0.328V9.566
	L456.06,9.566z M456.06,27.055c0,0.185-0.146,0.328-0.326,0.328h-13.846c-0.182,0-0.328-0.146-0.328-0.328v-1.937
	c0-0.181,0.146-0.328,0.328-0.328h13.846c0.182,0,0.326,0.147,0.326,0.328V27.055L456.06,27.055z M443.174,9.895v2.742
	c0,0-0.082,0.602,0.875,1.396c0.958,0.793,2.817,2.271,2.817,2.271s0.521,0.411,0.521,1.012c0,0.604-0.493,0.983-0.493,0.983
	l-3.063,2.546c0,0-0.633,0.244-0.657,1.202c-0.025,0.958,0,2.742,0,2.742 M454.029,9.895v2.742c0,0,0.082,0.602-0.875,1.396
	c-0.959,0.793-2.818,2.271-2.818,2.271s-0.52,0.411-0.52,1.012c0,0.604,0.489,0.983,0.489,0.983l3.063,2.546
	c0,0,0.634,0.244,0.658,1.202s0,2.742,0,2.742"/>
<polygon fill="#FF0000" points="445.853,23.073 451.85,23.073 448.851,20.57 "/>
<polygon fill="#FF0000" points="444.789,11.6 452.449,11.6 452.449,12.43 448.619,15.561 444.789,12.43 "/>
<path fill="none" stroke="#FF0000" stroke-linecap="round" stroke-linejoin="round" stroke-miterlimit="10" d="M468.859,20.584
	l8.383-8.098c0,0-1.528-4.936,3.957-4.778l-2.154,2.114l0.705,1.96l1.919,0.704l2.116-1.94c0,0,0.744,4.604-4.584,3.86l-8.344,8.266
	c0,0,1.539,4.896-3.957,4.66l2.039-2.115l-0.705-1.88l-1.883-0.665l-2.152,2.035C464.197,24.708,463.57,19.904,468.859,20.584
	L468.859,20.584z M503.719,8.5v16.188l-11-8.188L503.719,8.5L503.719,8.5z M519.567,8.5v16.188l11-8.188L519.567,8.5L519.567,8.5z
	 M579.476,22.232v-9.277l-6.305,4.691L579.476,22.232L579.476,22.232z M731.255,13.572v6.519l4.43-3.298L731.255,13.572
	L731.255,13.572z M594.205,23.135h9.277l-4.692-6.305L594.205,23.135L594.205,23.135z M541.789,16.882l-2.508,2.726l7.902,7.358
	l12.103-17.444l-3.488-1.744l-9.159,14.229L541.789,16.882L541.789,16.882z"/>
<path fill="none" stroke="#FF0000" stroke-miterlimit="10" d="M409.281,8c0-0.275-0.227-0.5-0.5-0.5h-18.363
	c-0.275,0-0.499,0.225-0.499,0.5v2.078c0,0.275,0.224,0.5,0.499,0.5h18.363c0.273,0,0.5-0.225,0.5-0.5V8L409.281,8z M569.156,27
	c0,0.275-0.226,0.5-0.5,0.5h-3.625c-0.276,0-0.5-0.225-0.5-0.5V8c0-0.275,0.224-0.5,0.5-0.5h3.625c0.274,0,0.5,0.225,0.5,0.5V27
	L569.156,27z M589.343,12.125c-0.273,0-0.5-0.225-0.5-0.5V8c0-0.275,0.227-0.5,0.5-0.5h19c0.276,0,0.5,0.225,0.5,0.5v3.625
	c0,0.275-0.224,0.5-0.5,0.5H589.343L589.343,12.125z"/>
<path fill="#FF0000" d="M655.995,14.848h-1.031v-2.576c0-0.233-0.188-0.424-0.423-0.424h-4.072v1.27h3.229v1.729h-1.083
	l-0.226,0.264l1.914,2.235l1.932-2.235L655.995,14.848L655.995,14.848z M650.735,17.693v2.688l0.973,0.953l2.353-2.301l-2.348-2.303
	L650.735,17.693L650.735,17.693z"/>
<polygon fill="none" stroke="#FF0000" stroke-miterlimit="10" points="650.735,6.141 640.164,7.993 640.164,25.336 650.735,27.189 
	"/>
<path fill="#FF0000" d="M644.392,16.275v-2.271h0.595c0.17-0.01,0.342,0.007,0.507,0.052c0.137,0.036,0.263,0.106,0.367,0.201
	c0.104,0.098,0.181,0.219,0.225,0.352c0.053,0.162,0.078,0.332,0.076,0.504c0.001,0.169-0.025,0.336-0.076,0.494
	c-0.088,0.281-0.31,0.502-0.592,0.588c-0.164,0.052-0.336,0.076-0.507,0.072h-0.563 M645.238,12.693l-2.114,0.123v7.188l1.269,0.076
	V17.52h0.717c0.186,0.008,0.369-0.002,0.555-0.023c0.175-0.023,0.35-0.066,0.516-0.126c0.161-0.06,0.315-0.131,0.461-0.224
	c0.151-0.088,0.295-0.192,0.423-0.314c0.116-0.115,0.224-0.24,0.313-0.376c0.089-0.134,0.164-0.274,0.225-0.423
	c0.063-0.156,0.105-0.32,0.138-0.486c0.088-0.535,0.048-1.082-0.119-1.598c-0.099-0.282-0.267-0.536-0.485-0.736
	c-0.229-0.202-0.503-0.348-0.799-0.423C645.972,12.699,645.605,12.668,645.238,12.693"/>
<path fill="none" stroke="#FF0000" stroke-miterlimit="10" d="M650.735,25.075h6.343c0.467,0,0.846-0.38,0.846-0.849V9.1
	c0-0.467-0.379-0.846-0.846-0.846h-6.343 M674.126,10.876c-4.406,0-8.253,2.396-10.313,5.954c2.062,3.559,5.904,5.955,10.313,5.955
	s8.253-2.396,10.313-5.955C682.379,13.271,678.534,10.876,674.126,10.876L674.126,10.876z M677.419,20.125
	c-0.843,0.844-2.009,1.363-3.293,1.363c-2.572,0-4.656-2.088-4.656-4.656c0-1.941,1.188-3.605,2.878-4.305
	c0.546-0.229,1.147-0.354,1.778-0.354c2.573,0,4.657,2.086,4.657,4.658C678.784,18.117,678.263,19.281,677.419,20.125
	 M674.126,14.757c1.146,0,2.074,0.929,2.074,2.074c0,1.146-0.931,2.073-2.074,2.073c-1.146,0-2.074-0.93-2.074-2.073
	C672.052,15.686,672.982,14.757,674.126,14.757L674.126,14.757z M695.747,9.266V7.381c0-0.047-0.037-0.084-0.085-0.084h-1.932
	c-0.047,0-0.084,0.038-0.084,0.084v1.885 M705.531,9.266V7.381c0-0.047-0.038-0.084-0.085-0.084h-1.933
	c-0.047,0-0.086,0.038-0.086,0.084v1.885 M708.571,9.266h-3.04v1.883c0,0.045-0.038,0.084-0.085,0.084h-1.933
	c-0.047,0-0.086-0.039-0.086-0.084V9.266h-7.684v1.883c0,0.045-0.037,0.084-0.085,0.084h-1.932c-0.046,0-0.084-0.039-0.084-0.084
	V9.266h-3.268c-0.047,0-0.085,0.037-0.085,0.084v17.88c0,0.047,0.038,0.084,0.085,0.084h18.19c0.047,0,0.085-0.037,0.085-0.084V9.35
	C708.656,9.302,708.618,9.266,708.571,9.266L708.571,9.266z M703.429,9.266v1.883c0,0.045,0.039,0.084,0.086,0.084h1.933
	c0.047,0,0.085-0.039,0.085-0.084V9.266 M690.295,14.788h18.148 M723.817,8.563c0,0,3.978-2.056,4.147-2.018
	c0.491,0.107,0.458,0.458,0.458,0.458v19.292c0,0,0.095,0.917-0.333,0.833c-1.623-0.317-4.272-1.065-4.272-1.065"/>
<path fill="#FF0000" d="M722.614,10.249c1.141,0,2.065,0.926,2.065,2.067s-0.927,2.066-2.065,2.066
	c-1.142,0-2.067-0.926-2.067-2.066C720.546,11.175,721.473,10.249,722.614,10.249L722.614,10.249z"/>
<path fill="#FF0000" d="M715.92,20.215l2.749-4.867c0,0-0.492-1.303-1.101,0c-0.552,1.179-0.958,1.068-0.958,1.068
	s-1.2,0.307-0.69-1.063c0.564-1.511,1.176-2.361,1.176-2.361l3.419,0.628c0,0,0.474,0.864,1.296,1.06l1.146,1.768l1.325-0.825
	c0,0,0.824-0.078,0.94,0.628c0.116,0.707-0.007,0.864-0.198,0.981c-0.192,0.117-2.234,1.021-2.234,1.021s-0.941,0.628-1.529-0.668
	l-1.375,1.964l1.53,1.334l-1.452,3.928c0,0-0.707,0.51-1.178,0.313c-0.472-0.195-0.432-0.666-0.394-1.1s0.901-2.707,0.901-2.707
	l-1.336-1.142l-1.059,2.041c0,0-0.369,0.824-1.385,0.274c-1.014-0.551-2.188-1.102-2.188-1.102s-0.51-0.511-0.313-1.139
	c0.194-0.628,0.706-0.706,1.18-0.473C714.665,20.02,715.92,20.215,715.92,20.215L715.92,20.215z"/>
<path fill="none" stroke="#FF0000" stroke-linecap="round" stroke-linejoin="round" stroke-miterlimit="10" d="M800.906,11.697
	c0,0.275-0.226,0.5-0.5,0.5h-3.375c-0.276,0-0.5-0.225-0.5-0.5V8.322c0-0.276,0.224-0.5,0.5-0.5h3.375c0.274,0,0.5,0.224,0.5,0.5
	V11.697L800.906,11.697z M800.906,19.219c0,0.276-0.226,0.5-0.5,0.5h-3.375c-0.276,0-0.5-0.224-0.5-0.5v-3.375
	c0-0.275,0.224-0.5,0.5-0.5h3.375c0.274,0,0.5,0.225,0.5,0.5V19.219L800.906,19.219z M800.906,26.457c0,0.275-0.226,0.5-0.5,0.5
	h-3.375c-0.276,0-0.5-0.225-0.5-0.5v-3.375c0-0.275,0.224-0.5,0.5-0.5h3.375c0.274,0,0.5,0.225,0.5,0.5V26.457L800.906,26.457z"/>
<path fill="none" stroke="#FF0000" stroke-miterlimit="10" d="M840.943,19.704c1.71,0,3.098,1.388,3.098,3.098
	s-1.388,3.099-3.098,3.099s-3.1-1.389-3.1-3.099S839.233,19.704,840.943,19.704L840.943,19.704z M838.907,10.555l0.276-3.385
	c0,0,7.435-0.771,12.8,4.594c5.363,5.362,4.888,13.011,4.888,13.011l-3.427,0.315c0,0,0.917-6.013-3.822-10.753
	C844.881,9.6,838.907,10.555,838.907,10.555L838.907,10.555z M847.509,16.451c0,0,3.418,2.398,3.321,8.787l-3.129-0.059
	c0,0-0.053-4.17-2.382-6.5c-2.33-2.33-6.499-2.383-6.499-2.383l-0.061-3.129C838.762,13.17,843.487,12.428,847.509,16.451
	L847.509,16.451z M865.229,19.704c1.712,0,3.1,1.388,3.1,3.098s-1.388,3.099-3.1,3.099c-1.71,0-3.099-1.389-3.099-3.099
	S863.519,19.704,865.229,19.704L865.229,19.704z M871.795,16.451c0,0,3.417,2.398,3.321,8.787l-3.129-0.059
	c0,0-0.055-4.17-2.384-6.5c-2.328-2.33-6.499-2.383-6.499-2.383l-0.06-3.129C863.048,13.17,867.773,12.428,871.795,16.451
	L871.795,16.451z M876.368,17.391c-0.034,0-0.069-0.002-0.104-0.004c-0.03-0.002-0.063-0.014-0.098-0.017
	c2.132,3.935,1.564,7.723,1.564,7.723l3.427-0.315c0,0,0.282-4.729-2.2-9.356l-1.059,1.261
	C877.517,17.13,876.957,17.391,876.368,17.391L876.368,17.391z M871.018,8.361c-3.979-1.559-7.547-1.19-7.547-1.19l-0.276,3.386
	c0,0,4.76-0.75,9.152,2.459l-1.495-2.209C870.329,10.032,870.425,9.027,871.018,8.361L871.018,8.361z M876.547,12.068
	c-0.016-0.017-0.029-0.033-0.046-0.049l0.039,0.057L876.547,12.068L876.547,12.068z M876.269,11.764
	c0.083,0.084,0.151,0.172,0.231,0.256l-2.337-3.457c-0.618-0.914-1.863-1.152-2.775-0.535c-0.143,0.096-0.263,0.211-0.37,0.332
	 M878.957,15.418l5.576-6.63c0.711-0.845,0.604-2.106-0.243-2.817c-0.846-0.713-2.105-0.603-2.816,0.243l-4.926,5.854
	 M872.347,13.014l2.363,3.496c0.332,0.492,0.867,0.801,1.454,0.86 M876.547,12.068l-0.007,0.008l-0.039-0.057
	c-0.08-0.084-0.148-0.172-0.231-0.256 M876.166,17.37c0.033,0.003,0.064,0.015,0.098,0.017c0.035,0.002,0.07,0.004,0.104,0.004
	c0.589,0,1.147-0.261,1.53-0.714l1.059-1.259 M871.018,8.361c-0.594,0.666-0.688,1.671-0.166,2.443l1.495,2.209 M698.914,24.775
	c-0.256,0-0.503-0.1-0.689-0.275l-3.167-3.021c-0.397-0.381-0.414-1.014-0.031-1.412c0.382-0.397,1.014-0.414,1.414-0.032
	l2.324,2.219l4.092-5.826c0.314-0.452,0.938-0.562,1.394-0.243c0.452,0.316,0.563,0.94,0.244,1.393l-4.759,6.774
	c-0.167,0.238-0.433,0.395-0.722,0.42C698.979,24.773,698.946,24.775,698.914,24.775L698.914,24.775z M822.121,22.896
	c-0.327,0-0.646-0.125-0.884-0.354l-4.053-3.864c-0.513-0.486-0.528-1.297-0.043-1.81c0.487-0.509,1.298-0.529,1.811-0.042
	l2.978,2.839l5.232-7.454c0.405-0.578,1.203-0.717,1.781-0.313c0.578,0.406,0.719,1.205,0.313,1.783l-6.088,8.668
	c-0.214,0.308-0.551,0.502-0.921,0.539C822.205,22.895,822.162,22.896,822.121,22.896L822.121,22.896z M823.139,7.282
	c5.521,0,9.999,4.481,9.999,10c0,5.519-4.479,10-9.999,10c-5.52,0-10-4.481-10-10C813.139,11.763,817.62,7.282,823.139,7.282
	L823.139,7.282z M778.468,24.197c-0.205,0-0.402-0.078-0.557-0.225l-2.549-2.432c-0.321-0.309-0.333-0.814-0.026-1.141
	c0.308-0.318,0.815-0.332,1.139-0.024l1.873,1.786l3.293-4.689c0.256-0.361,0.759-0.449,1.12-0.193
	c0.363,0.255,0.451,0.758,0.196,1.121l-3.831,5.453c-0.135,0.191-0.347,0.314-0.579,0.34
	C778.521,24.195,778.494,24.197,778.468,24.197L778.468,24.197z M779.109,14.373c-3.477,0-6.292,2.816-6.292,6.292
	s2.815,6.292,6.292,6.292c2.723,0,5.033-1.732,5.909-4.154 M785.02,22.803c0.241-0.668,0.383-1.386,0.383-2.138
	c0-3.476-2.817-6.292-6.292-6.292 M745.615,13.572h6.084 M745.615,16.831h10 M746.449,21v4.167 M748.657,25.167v-2.083
	 M750.615,25.167v-3.5 M752.532,25.167v-5.076 M754.282,25.167v-1.75 M756.032,25.167v-3.5"/>
<path fill="none" stroke="#FF0000" stroke-linecap="round" stroke-linejoin="round" stroke-miterlimit="10" d="M755.282,10V7.282
	h-12.084c-0.276,0-0.5,0.206-0.5,0.459v19.082c0,0.254,0.224,0.459,0.5,0.459h14.833c0.274,0,0.5-0.205,0.5-0.459V10.5h-2.749
	C755.505,10.5,755.282,10.275,755.282,10L755.282,10z M755.282,7.282l3.249,3.218 M980.282,10V7.282h-12.084
	c-0.276,0-0.5,0.206-0.5,0.459v19.082c0,0.254,0.224,0.459,0.5,0.459h14.833c0.274,0,0.5-0.205,0.5-0.459V10.5h-2.749
	C980.505,10.5,980.282,10.275,980.282,10L980.282,10z M980.282,7.282l3.249,3.218 M940.156,12.232h16.875l-8.438,9.561
	L940.156,12.232L940.156,12.232z M959.906,27c0,0.275-0.226,0.5-0.5,0.5h-21.25c-0.276,0-0.5-0.225-0.5-0.5v-2.375
	c0-0.275,0.224-0.5,0.5-0.5h21.25c0.274,0,0.5,0.225,0.5,0.5V27L959.906,27z"/>
<path fill="none" stroke="#FF0000" stroke-width="0.567" stroke-miterlimit="10" d="M900.406,26.9h-1.434
	c-3.487-0.64-6.984-1.224-10.481-1.832c-0.002-5.352,0-11.696,0-17.042c3.515-0.614,11.915-1.838,11.915-1.838V26.9L900.406,26.9z
	 M900.406,25.075V8.036h7.354c0.522-0.054,0.935,0.353,0.885,0.875c0.039,4.516-0.01,10.034,0.022,14.549
	c-0.022,0.463,0.045,0.978-0.223,1.39c-0.334,0.235-0.771,0.207-1.157,0.228L900.406,25.075L900.406,25.075z"/>
<path fill="none" stroke="#FF0000" stroke-width="0.183" stroke-miterlimit="10" d="M900.406,13.377c0-0.382,0-0.764,0-1.146
	 M900.406,15.439c0-0.381,0-0.763,0-1.146 M900.406,17.504c0-0.383,0-0.763,0-1.146 M900.406,19.566c0-0.383,0-0.766,0-1.146
	 M900.406,21.631c0-0.384,0-0.764,0-1.146"/>
<path fill="#FF0000" d="M893.227,13.76c0.437-0.023,0.871-0.043,1.308-0.064c0.306,1.546,0.617,3.091,0.944,4.633
	c0.263-1.593,0.549-3.18,0.823-4.768c0.459-0.017,0.916-0.041,1.372-0.067c-0.518,2.221-0.972,4.46-1.536,6.667
	c-0.384,0.198-0.956-0.009-1.409,0.021c-0.307-1.517-0.659-3.023-0.936-4.549c-0.268,1.482-0.616,2.949-0.923,4.422
	c-0.439-0.022-0.883-0.052-1.325-0.082c-0.38-2.018-0.827-4.021-1.183-6.042c0.392-0.019,0.786-0.033,1.179-0.049
	c0.235,1.46,0.504,2.914,0.711,4.377C892.577,16.759,892.906,15.26,893.227,13.76L893.227,13.76z"/>
<path fill="none" stroke="#FF0000" stroke-width="0.542" stroke-miterlimit="10" d="M901.53,11.105h5.995 M901.53,12.805h5.995
	 M901.53,14.591h5.995 M901.53,16.289h5.995 M901.53,18.146h5.995 M901.53,19.843h5.995 M901.53,21.411h5.995 M901.53,22.938h5.995"
	/>
<path fill="none" stroke="#FF0000" stroke-width="0.312" stroke-miterlimit="10" d="M925.888,24.878h7.121
	c0.525,0,0.95-0.425,0.95-0.948V9.16c0-0.524-0.425-0.949-0.95-0.949h-7.121V24.878L925.888,24.878z"/>
<polygon fill="#FF0000" points="931.585,11.584 928.263,11.584 928.263,13.008 931.585,13.008 "/>
<polygon fill="#FF0000" points="931.585,13.958 928.263,13.958 928.263,15.383 931.585,15.383 "/>
<polygon fill="#FF0000" points="931.585,16.333 928.263,16.333 928.263,17.758 931.585,17.758 "/>
<polygon fill="#FF0000" points="931.585,18.707 928.263,18.707 928.263,20.131 931.585,20.131 "/>
<polygon fill="#FF0000" points="931.585,21.08 928.263,21.08 928.263,22.505 931.585,22.505 "/>
<polygon fill="#FF0000" points="927.313,11.584 925.888,11.584 925.888,13.008 927.313,13.008 "/>
<polygon fill="#FF0000" points="927.313,13.958 925.888,13.958 925.888,15.383 927.313,15.383 "/>
<polygon fill="#FF0000" points="927.313,16.333 925.888,16.333 925.888,17.758 927.313,17.758 "/>
<polygon fill="#FF0000" points="927.313,18.707 925.888,18.707 925.888,20.131 927.313,20.131 "/>
<polygon fill="#FF0000" points="927.313,21.08 925.888,21.08 925.888,22.505 927.313,22.505 "/>
<polygon fill="none" stroke="#FF0000" stroke-width="0.312" stroke-miterlimit="10" points="925.888,6.313 914.019,8.393 
	914.019,25.174 925.888,27.254 "/>
<path fill="#FF0000" d="M922.499,13.009l-1.655,0.101l-1.013,2.373l-0.064,0.215l-0.05,0.16l-0.043,0.156l-0.033,0.129
	c0-0.063-0.015-0.125-0.042-0.182l-0.044-0.166l-0.049-0.156l-0.052-0.144l-0.868-2.254l-1.6,0.099l1.705,3.693l-1.887,3.693
	l1.563,0.096l1.049-2.422l0.048-0.166l0.038-0.147l0.034-0.123v-0.1l0.033,0.175l0.033,0.146l0.026,0.112l0.028,0.081l1.093,2.582
	l1.813,0.114l-2.042-4.068L922.499,13.009"/>
<path fill="none" stroke="#FF0000" stroke-miterlimit="10" d="M27.523,6.05c3.553,0,6.438,2.886,6.438,6.438
	c0,3.552-2.886,6.438-6.438,6.438c-3.552,0-6.438-2.885-6.438-6.438C21.085,8.935,23.97,6.05,27.523,6.05L27.523,6.05z M58.193,26.5
	c0,0.552-0.447,1-1,1H40.732c-0.552,0-1-0.448-1-1V8.438c0-0.553,0.448-1,1-1h16.461c0.553,0,1,0.447,1,1V26.5L58.193,26.5z"/>
<path fill="none" stroke="#FF0000" stroke-width="0.931" stroke-miterlimit="10" d="M54.701,26.438c0,0.588-0.364,1.063-0.814,1.063
	h-9.2c-0.45,0-0.815-0.476-0.815-1.063V19.99c0-0.588,0.365-1.063,0.815-1.063h9.2c0.45,0,0.814,0.478,0.814,1.063V26.438
	L54.701,26.438z"/>
<path fill="none" stroke="#FF0000" stroke-width="0.867" stroke-miterlimit="10" d="M54.701,12.845c0,0.487-0.381,0.882-0.854,0.882
	h-6.865c-0.471,0-0.854-0.396-0.854-0.882V8.336c0-0.486,0.382-0.881,0.854-0.881h6.865c0.473,0,0.854,0.395,0.854,0.881V12.845
	L54.701,12.845z"/>
<path fill="none" stroke="#FF0000" stroke-miterlimit="10" d="M260.715,26.301c0,0.393-0.315,0.706-0.706,0.706h-11.618
	c-0.39,0-0.706-0.313-0.706-0.706V13.555c0-0.391,0.316-0.707,0.706-0.707h11.618c0.391,0,0.706,0.316,0.706,0.707V26.301
	L260.715,26.301z M248.391,12.848h1.67V7.037c0-0.391-0.315-0.706-0.706-0.706h-11.617c-0.391,0-0.707,0.315-0.707,0.706v12.747
	c0,0.391,0.316,0.706,0.707,0.706h2.791c-0.318,0-0.576-0.336-0.576-0.75v-4.551c0-0.414,0.258-0.752,0.576-0.752h6.492
	c0.317,0,0.575,0.338,0.575,0.752v4.551c0,0.414-0.257,0.75-0.575,0.75h0.664v-6.938C247.685,13.164,248.001,12.848,248.391,12.848
	L248.391,12.848z M247.596,10.146c0,0.344-0.269,0.623-0.603,0.623h-4.844c-0.334,0-0.603-0.279-0.603-0.623V6.965
	c0-0.343,0.271-0.622,0.603-0.622h4.844c0.334,0,0.603,0.279,0.603,0.622V10.146L247.596,10.146z M247.596,19.74v-4.551
	c0-0.414-0.257-0.752-0.575-0.752h-6.492c-0.318,0-0.576,0.338-0.576,0.752v4.551c0,0.414,0.258,0.75,0.576,0.75h6.492
	C247.339,20.49,247.596,20.154,247.596,19.74L247.596,19.74z M246.994,6.343h-4.844c-0.334,0-0.603,0.279-0.603,0.622v3.184
	c0,0.343,0.271,0.621,0.603,0.621h4.844c0.334,0,0.603-0.278,0.603-0.621V6.965C247.596,6.622,247.328,6.343,246.994,6.343
	L246.994,6.343z"/>
<path fill="none" stroke="#FF0000" stroke-width="0.931" stroke-miterlimit="10" d="M258.25,26.257c0,0.415-0.256,0.75-0.574,0.75
	h-6.493c-0.317,0-0.575-0.335-0.575-0.75v-4.551c0-0.414,0.258-0.751,0.575-0.751h6.493c0.316,0,0.574,0.337,0.574,0.751V26.257
	L258.25,26.257z"/>
<path fill="none" stroke="#FF0000" stroke-width="0.867" stroke-miterlimit="10" d="M258.25,16.664c0,0.343-0.268,0.622-0.602,0.622
	h-4.845c-0.333,0-0.603-0.279-0.603-0.622V13.48c0-0.342,0.271-0.621,0.603-0.621h4.845c0.334,0,0.602,0.279,0.602,0.621V16.664
	L258.25,16.664z"/>
<path fill="none" stroke="#FF0000" stroke-width="0.886" stroke-miterlimit="10" d="M67.406,15.729h-3.625c-0.551,0-1,0.447-1,1
	v7.625c0,0.556,0.449,1,1,1h3.625v-3.813c0-0.553,0.448-1,1-1h11.375c0.553,0,1,0.447,1,1v3.813h3.75c0.553,0,1-0.444,1-1v-7.625
	c0-0.553-0.447-1-1-1h-3.75 M67.406,25.354v1.25c0,0.556,0.448,1,1,1h11.375c0.553,0,1-0.444,1-1v-1.25 M80.781,25.354v-3.813
	c0-0.553-0.447-1-1-1H68.406c-0.552,0-1,0.447-1,1v3.813 M80.781,7.729c0-0.553-0.447-1-1-1H68.406c-0.552,0-1,0.447-1,1v8h13.375
	V7.729L80.781,7.729z M69.031,9.379h6.25 M69.031,12.354h9 M66.541,18.047c0,0.485-0.395,0.879-0.879,0.879
	c-0.486,0-0.879-0.394-0.879-0.879c0-0.486,0.394-0.88,0.879-0.88C66.146,17.167,66.541,17.561,66.541,18.047L66.541,18.047z"/>
<path fill="none" stroke="#FF0000" stroke-miterlimit="10" d="M105.156,16.563V6.5c0-0.553-0.447-1-1-1H90.281c-0.551,0-1,0.447-1,1
	v20c0,0.553,0.449,1,1,1h13.875c0.553,0,1-0.447,1-1v-1.146"/>
<path fill="#FF0000" d="M369.529,24.043c-0.469,0-0.896-0.068-1.291-0.206c-0.396-0.138-0.733-0.343-1.02-0.614
	c-0.282-0.271-0.503-0.611-0.657-1.02c-0.155-0.407-0.233-0.877-0.233-1.41c0-0.497,0.074-0.947,0.224-1.352
	c0.15-0.405,0.364-0.752,0.647-1.041c0.271-0.276,0.608-0.491,1.014-0.646c0.402-0.149,0.843-0.228,1.32-0.228
	c0.264,0,0.502,0.016,0.713,0.045c0.211,0.027,0.408,0.066,0.588,0.115c0.188,0.054,0.357,0.111,0.511,0.18
	c0.153,0.064,0.287,0.127,0.401,0.183v1.521h-0.187c-0.075-0.066-0.177-0.146-0.297-0.238c-0.116-0.092-0.254-0.184-0.403-0.271
	c-0.154-0.09-0.322-0.164-0.502-0.227c-0.182-0.063-0.371-0.093-0.576-0.093c-0.229,0-0.443,0.034-0.648,0.106
	c-0.205,0.07-0.395,0.188-0.566,0.354c-0.166,0.159-0.302,0.371-0.402,0.634c-0.104,0.264-0.153,0.583-0.153,0.958
	c0,0.394,0.058,0.72,0.166,0.983c0.11,0.263,0.251,0.471,0.419,0.621c0.171,0.153,0.361,0.265,0.572,0.33
	c0.211,0.064,0.418,0.099,0.623,0.099c0.197,0,0.392-0.029,0.584-0.087c0.191-0.061,0.369-0.141,0.531-0.239
	c0.139-0.081,0.267-0.168,0.385-0.26c0.117-0.093,0.214-0.173,0.289-0.239h0.168v1.499c-0.156,0.069-0.307,0.136-0.449,0.198
	c-0.142,0.063-0.293,0.115-0.451,0.16c-0.204,0.059-0.396,0.104-0.574,0.135C370.091,24.027,369.842,24.043,369.529,24.043
	L369.529,24.043z"/>
<path fill="#FF0000" d="M377.953,21.951c0,0.617-0.262,1.119-0.785,1.505s-1.234,0.579-2.133,0.579
	c-0.521,0-0.971-0.046-1.357-0.137c-0.387-0.092-0.748-0.207-1.084-0.351v-1.503h0.176c0.334,0.27,0.708,0.473,1.122,0.615
	s0.813,0.215,1.194,0.215c0.098,0,0.227-0.009,0.387-0.023c0.16-0.018,0.291-0.045,0.395-0.086c0.123-0.051,0.225-0.111,0.305-0.188
	s0.119-0.188,0.119-0.337c0-0.139-0.057-0.258-0.174-0.356s-0.287-0.176-0.514-0.229c-0.234-0.057-0.482-0.108-0.744-0.157
	c-0.266-0.049-0.512-0.112-0.74-0.188c-0.527-0.172-0.908-0.402-1.141-0.695c-0.23-0.295-0.347-0.658-0.347-1.096
	c0-0.584,0.261-1.06,0.784-1.429c0.523-0.368,1.197-0.554,2.02-0.554c0.412,0,0.82,0.04,1.225,0.119
	c0.401,0.08,0.752,0.182,1.047,0.302V19.4h-0.174c-0.252-0.202-0.563-0.371-0.93-0.508c-0.363-0.138-0.738-0.203-1.119-0.203
	c-0.138,0-0.271,0.009-0.402,0.024c-0.135,0.021-0.262,0.056-0.385,0.104c-0.11,0.043-0.205,0.104-0.283,0.19
	c-0.078,0.087-0.117,0.185-0.117,0.293c0,0.166,0.063,0.294,0.189,0.382c0.125,0.09,0.362,0.17,0.715,0.241
	c0.229,0.048,0.451,0.097,0.664,0.142c0.211,0.045,0.438,0.104,0.684,0.185c0.48,0.157,0.834,0.371,1.063,0.644
	C377.838,21.167,377.953,21.518,377.953,21.951L377.953,21.951z"/>
<polygon fill="#FF0000" points="384.744,17.652 382.457,23.921 380.648,23.921 378.361,17.652 380.059,17.652 381.574,22.053 
	383.089,17.652 "/>
<path fill="none" stroke="#FF0000" stroke-miterlimit="10" d="M378.531,16.563V6.5c0-0.553-0.447-1-1-1h-13.875
	c-0.551,0-1,0.447-1,1v20c0,0.553,0.449,1,1,1h13.875c0.553,0,1-0.447,1-1v-1.146 M131.043,15.688c2.679,0,4.854,2.176,4.854,4.854
	c0,2.679-2.176,4.854-4.854,4.854c-2.678,0-4.854-2.176-4.854-4.854C126.189,17.864,128.365,15.688,131.043,15.688L131.043,15.688z
	 M126.191,20.542c0-2.683,2.172-4.854,4.854-4.854c0.754,0,1.459,0.188,2.096,0.494V11.75c0-0.553-0.447-1-1-1h-9
	c-0.552,0-1,0.447-1,1v14.5c0,0.553,0.448,1,1,1h9c0.553,0,1-0.447,1-1v-1.348c-0.637,0.307-1.342,0.492-2.096,0.492
	C128.363,25.396,126.191,23.225,126.191,20.542L126.191,20.542z M123.099,10.801h0.842V6.5c0-0.553-0.447-1-1-1h-9
	c-0.552,0-1,0.447-1,1V21c0,0.553,0.448,1,1,1h8.158V11.801C122.099,11.248,122.547,10.801,123.099,10.801L123.099,10.801z"/>
<path fill="none" stroke="#FF0000" stroke-width="0.886" stroke-miterlimit="10" d="M114.691,9.125h6.25 M114.691,11.375h4.242
	 M114.691,13.25h4.242 M114.691,15h4.242 M114.695,16.75h4.242"/>
<path fill="none" stroke="#FF0000" stroke-linecap="round" stroke-linejoin="round" stroke-miterlimit="10" d="M205.142,24.072
	c0,0-2.395,2.35-5.768,2.35c-3.372,0-10.219-1.787-10.219-10.271h-1.733l3.062-4.897l2.861,4.847c0,0-1.209,0-1.533,0
	c0,0-0.408,9.456,7.512,9.456C203.189,25.555,205.142,24.072,205.142,24.072L205.142,24.072z M192.187,9.428
	c0,0,2.395-2.351,5.768-2.351c3.371,0,10.22,1.788,10.22,10.271h1.733l-3.063,4.899l-2.861-4.851c0,0,1.209,0,1.533,0
	c0,0,0.408-9.453-7.512-9.453C194.141,7.947,192.187,9.428,192.187,9.428L192.187,9.428z M345.81,7.479
	c3.342,0,6.053,2.711,6.053,6.051c0,3.34-2.711,6.051-6.053,6.051c-3.34,0-6.051-2.711-6.051-6.051
	C339.759,10.19,342.47,7.479,345.81,7.479L345.81,7.479z"/>
<path fill="none" stroke="#FF0000" stroke-miterlimit="10" d="M778.918,14.373c1.134,0,2.194,0.304,3.112,0.828V8.889
	c0-0.467-0.461-0.845-1.03-0.845h-17.76c-0.569,0-1.03,0.377-1.03,0.845v14.146c0,0.467,0.461,0.844,1.03,0.844h10.272
	c-0.562-0.941-0.89-2.037-0.89-3.212C772.626,17.189,775.444,14.373,778.918,14.373L778.918,14.373z"/>
<path fill="none" stroke="#FF0000" stroke-width="2" stroke-miterlimit="10" d="M762.183,10.876h7.75 M770.015,12.955h5.417
	 M765.234,15.792h5.543 M770.837,17.871h2.64 M761.85,21h9.958"/>
<path fill="none" stroke="#FF0000" stroke-miterlimit="10" d="M634.704,26.366c0,0.308-0.249,0.557-0.558,0.557h-9.166
	c-0.31,0-0.559-0.249-0.559-0.557V16.309c0-0.307,0.249-0.557,0.559-0.557h9.166c0.309,0,0.558,0.25,0.558,0.557V26.366
	L634.704,26.366z M624.36,17.871v-1.46c0-0.322,0.26-0.583,0.582-0.583h6.937V8.889c0-0.467-0.461-0.845-1.029-0.845h-17.761
	c-0.567,0-1.029,0.377-1.029,0.845v14.145c0,0.467,0.462,0.844,1.029,0.844h11.271V17.871"/>
<path fill="none" stroke="#FF0000" stroke-width="0.931" stroke-miterlimit="10" d="M632.759,26.331
	c0,0.327-0.202,0.592-0.453,0.592h-5.122c-0.251,0-0.453-0.265-0.453-0.592v-3.59c0-0.327,0.202-0.593,0.453-0.593h5.122
	c0.251,0,0.453,0.266,0.453,0.593V26.331L632.759,26.331z"/>
<path fill="none" stroke="#FF0000" stroke-width="0.867" stroke-miterlimit="10" d="M632.759,18.764c0,0.271-0.213,0.49-0.476,0.49
	h-3.822c-0.263,0-0.476-0.22-0.476-0.49v-2.512c0-0.271,0.213-0.49,0.476-0.49h3.822c0.263,0,0.476,0.221,0.476,0.49V18.764
	L632.759,18.764z"/>
<path fill="none" stroke="#FF0000" stroke-width="2" stroke-miterlimit="10" d="M612.058,10.502h8.85 M620.906,12.439h4.688
	 M613.705,14.846h4.625 M618.33,17.033h3.844 M612.044,21.063h8.875"/>
<g>
	<path fill="none" stroke="#FF0000" stroke-linecap="round" stroke-linejoin="round" stroke-miterlimit="10" d="M1009.099,24.45
		c0,0-2.395,2.35-5.768,2.35c-3.372,0-10.219-1.786-10.219-10.271h-1.733l3.063-4.897l2.859,4.847c0,0-1.209,0-1.532,0
		c0,0-0.407,9.455,7.513,9.455C1007.146,25.934,1009.099,24.45,1009.099,24.45L1009.099,24.45z"/>
	<path fill="none" stroke="#FF0000" stroke-linecap="round" stroke-linejoin="round" stroke-miterlimit="10" d="M996.144,9.806
		c0,0,2.396-2.351,5.77-2.351c3.371,0,10.22,1.788,10.22,10.27h1.733l-3.063,4.9l-2.859-4.852c0,0,1.209,0,1.531,0
		c0,0,0.408-9.45-7.512-9.45C998.098,8.325,996.144,9.806,996.144,9.806L996.144,9.806z"/>
</g>
<g>
	<g>
		<path fill="#FF0000" d="M1006.066,21.079c-0.334,0-0.601-0.158-0.744-0.446l-0.647-1.414h-3.802l-0.643,1.401
			c-0.104,0.282-0.378,0.459-0.738,0.459c-0.226,0-0.42-0.077-0.568-0.224c-0.146-0.147-0.228-0.334-0.228-0.541
			c0-0.121,0.021-0.231,0.066-0.33l3.254-6.979c0.281-0.626,1.257-0.621,1.52,0.017l3.258,6.973
			c0.045,0.065,0.079,0.188,0.079,0.317c0,0.213-0.087,0.404-0.25,0.554C1006.469,21.006,1006.277,21.079,1006.066,21.079z
			 M1001.526,17.799h2.506l-1.253-2.734L1001.526,17.799z"/>
	</g>
</g>
<g>
	<path fill="#FF0000" d="M1028.989,19.898c0,0.271-0.047,0.539-0.144,0.8c-0.096,0.261-0.231,0.479-0.408,0.657
		c-0.243,0.24-0.516,0.422-0.813,0.545c-0.299,0.123-0.671,0.185-1.116,0.185h-0.979v1.985h-1.572v-6.098h2.588
		c0.388,0,0.715,0.033,0.98,0.101c0.267,0.067,0.502,0.168,0.707,0.301c0.244,0.162,0.434,0.368,0.563,0.619
		C1028.925,19.244,1028.989,19.546,1028.989,19.898z M1027.364,19.934c0-0.173-0.047-0.319-0.141-0.443
		c-0.093-0.124-0.2-0.211-0.323-0.26c-0.163-0.064-0.323-0.102-0.479-0.107c-0.157-0.007-0.364-0.01-0.623-0.01h-0.271v1.82h0.45
		c0.268,0,0.487-0.017,0.661-0.049c0.175-0.033,0.318-0.098,0.437-0.195c0.102-0.088,0.174-0.19,0.219-0.313
		C1027.342,20.255,1027.364,20.105,1027.364,19.934z"/>
	<path fill="#FF0000" d="M1035.614,21.027c0,0.568-0.13,1.076-0.391,1.525c-0.258,0.449-0.586,0.795-0.98,1.034
		c-0.298,0.181-0.624,0.306-0.979,0.377c-0.354,0.07-0.774,0.106-1.262,0.106h-2.148v-6.098h2.209c0.498,0,0.929,0.041,1.287,0.125
		c0.36,0.082,0.663,0.2,0.908,0.354c0.422,0.257,0.752,0.604,0.994,1.038C1035.493,19.926,1035.614,20.438,1035.614,21.027z
		 M1033.988,21.016c0-0.4-0.072-0.744-0.219-1.029s-0.379-0.508-0.695-0.668c-0.161-0.08-0.325-0.135-0.493-0.162
		c-0.168-0.029-0.421-0.043-0.759-0.043h-0.397v3.816h0.397c0.374,0,0.647-0.018,0.822-0.052c0.176-0.034,0.347-0.096,0.513-0.187
		c0.286-0.164,0.496-0.383,0.631-0.657C1033.921,21.759,1033.988,21.42,1033.988,21.016z"/>
	<path fill="#FF0000" d="M1040.933,19.152h-2.806v1.135h2.601v1.18h-2.601v2.604h-1.564v-6.098h4.37V19.152z"/>
</g>
<g>
	<path fill="none" stroke="#FF0000" stroke-width="0.9245" stroke-miterlimit="10" d="M1035.471,8.187V7.125
		c0-0.538-0.435-0.973-0.972-0.973h-13.497c-0.537,0-0.973,0.435-0.973,0.973V26.58c0,0.538,0.436,0.973,0.973,0.973h13.497
		c0.537,0,0.972-0.435,0.972-0.973v-1.114"/>
</g>
<g id="Layer_1_2_">
	<path id="path2_1_" fill="#FF0000" stroke="#FF0000" stroke-width="0.1849" stroke-miterlimit="10" d="M1024.804,15.466
		c0.668,0.668,1.558,1.036,2.499,1.037h10.729c1.592,0,2.889-1.296,2.889-2.889c0-1.594-1.297-2.891-2.89-2.891h-9.537
		c-0.601,0-1.162,0.234-1.586,0.657c-0.424,0.424-0.657,0.987-0.657,1.585c0,0.6,0.234,1.164,0.657,1.587
		c0.424,0.424,0.985,0.658,1.586,0.657h7.813v-0.61h-7.813c-0.437,0-0.847-0.169-1.156-0.479c-0.309-0.308-0.479-0.719-0.479-1.155
		s0.171-0.847,0.479-1.155c0.311-0.309,0.721-0.479,1.156-0.479h9.537c1.258,0,2.28,1.023,2.28,2.28
		c-0.002,1.257-1.023,2.281-2.28,2.281h-10.727c-0.781,0-1.518-0.305-2.069-0.857c-1.142-1.141-1.142-2.998,0-4.138
		c0.554-0.554,1.288-0.858,2.069-0.858l9.863,0.001l-0.001-0.61h-9.862c-0.942,0-1.832,0.368-2.501,1.036
		C1023.426,11.845,1023.426,14.088,1024.804,15.466z"/>
</g>
</svg>
