<?xml version="1.0" encoding="utf-8"?>
<!-- Generator: Adobe Illustrator 16.0.0, SVG Export Plug-In . SVG Version: 6.00 Build 0)  -->
<!DOCTYPE svg PUBLIC "-//W3C//DTD SVG 1.1//EN" "http://www.w3.org/Graphics/SVG/1.1/DTD/svg11.dtd">
<svg version="1.1" id="Calque_1" xmlns="http://www.w3.org/2000/svg" xmlns:xlink="http://www.w3.org/1999/xlink" x="0px" y="0px"
	 width="128px" height="128px" viewBox="0 0 128 128" enable-background="new 0 0 128 128" xml:space="preserve">
<path fill="none" stroke="#FF0000" stroke-width="5.7773" stroke-linecap="round" stroke-linejoin="round" stroke-miterlimit="10" d="
	M105.695,19.416c0,1.047-0.848,1.896-1.891,1.896H23.82c-1.055,0-1.896-0.849-1.896-1.896V8.23c0-1.043,0.841-1.896,1.896-1.896
	h79.985c1.051,0,1.891,0.852,1.891,1.896V19.416L105.695,19.416z"/>
<path fill="none" stroke="#FF0000" stroke-width="5.7773" stroke-linecap="round" stroke-linejoin="round" stroke-miterlimit="10" d="
	M105.695,120.454c0,1.065-0.848,1.896-1.891,1.896H23.82c-1.055,0-1.896-0.847-1.896-1.896v-11.188c0-1.043,0.841-1.896,1.896-1.896
	h79.985c1.051,0,1.891,0.853,1.891,1.896V120.454L105.695,120.454z"/>
<path fill="none" stroke="#FF0000" stroke-width="5.7773" stroke-linecap="round" stroke-linejoin="round" stroke-miterlimit="10" d="
	M31.25,21.317V37.16c0,0-0.474,3.478,5.055,8.065c5.535,4.581,16.271,13.12,16.271,13.12s3.013,2.373,3.013,5.848
	c0,3.487-2.849,5.681-2.849,5.681L35.042,84.577c0,0-3.656,1.416-3.792,6.95c-0.152,5.535,0,15.843,0,15.843"/>
<path fill="none" stroke="#E52620" stroke-width="5.7773" stroke-linecap="round" stroke-linejoin="round" stroke-miterlimit="10" d="
	M93.96,21.317V37.16c0,0,0.474,3.478-5.056,8.065c-5.541,4.581-16.276,13.12-16.276,13.12s-3.007,2.373-3.007,5.848
	c0,3.487,2.832,5.681,2.832,5.681l17.693,14.703c0,0,3.666,1.416,3.802,6.95c0.147,5.535,0,15.843,0,15.843"/>
<polygon fill="#FF0000" points="46.726,97.452 81.373,97.452 64.046,82.991 "/>
<polygon fill="#FF0000" points="40.576,31.168 84.831,31.168 84.831,35.963 62.704,54.051 40.576,35.963 "/>
</svg>
