<?xml version="1.0" encoding="utf-8"?>
<!-- Generator: Adobe Illustrator 16.0.0, SVG Export Plug-In . SVG Version: 6.00 Build 0)  -->
<!DOCTYPE svg PUBLIC "-//W3C//DTD SVG 1.1//EN" "http://www.w3.org/Graphics/SVG/1.1/DTD/svg11.dtd">
<svg version="1.1" id="Calque_1" xmlns="http://www.w3.org/2000/svg" xmlns:xlink="http://www.w3.org/1999/xlink" x="0px" y="0px"
	 width="128px" height="128px" viewBox="0 0 128 128" enable-background="new 0 0 128 128" xml:space="preserve">
<line fill="none" stroke="#E52620" stroke-linecap="round" stroke-linejoin="round" stroke-miterlimit="10" x1="327.645" y1="24.334" x2="313.949" y2="24.333"/>
<line fill="none" stroke="#E52620" stroke-linecap="round" stroke-linejoin="round" stroke-miterlimit="10" x1="325.779" y1="21.855" x2="313.947" y2="21.855"/>
<line fill="none" stroke="#E52620" stroke-linecap="round" stroke-linejoin="round" stroke-miterlimit="10" x1="324.68" y1="19.271" x2="313.949" y2="19.271"/>
<line fill="none" stroke="#E52620" stroke-linecap="round" stroke-linejoin="round" stroke-miterlimit="10" x1="324.68" y1="16.635" x2="313.949" y2="16.635"/>
<line fill="none" stroke="#E52620" stroke-linecap="round" stroke-linejoin="round" stroke-miterlimit="10" x1="325.779" y1="14.255" x2="313.947" y2="14.255"/>
<line fill="none" stroke="#E52620" stroke-linecap="round" stroke-linejoin="round" stroke-miterlimit="10" x1="327.645" y1="11.777" x2="313.949" y2="11.777"/>
<path fill="none" stroke="#E52620" stroke-linecap="round" stroke-linejoin="round" stroke-miterlimit="10" d="M326.717,18.408
	l7.525,7.527V10.174l-7.525,7.527C326.521,17.896,326.521,18.213,326.717,18.408L326.717,18.408z"/>
<line fill="none" stroke="#FF0000" stroke-width="5" stroke-linecap="round" stroke-linejoin="round" stroke-miterlimit="10" x1="83.51" y1="98.411" x2="8.588" y2="98.406"/>
<line fill="none" stroke="#FF0000" stroke-width="5" stroke-linecap="round" stroke-linejoin="round" stroke-miterlimit="10" x1="73.314" y1="84.852" x2="8.577" y2="84.852"/>
<line fill="none" stroke="#FF0000" stroke-width="5" stroke-linecap="round" stroke-linejoin="round" stroke-miterlimit="10" x1="67.293" y1="70.712" x2="8.583" y2="70.712"/>
<line fill="none" stroke="#FF0000" stroke-width="5" stroke-linecap="round" stroke-linejoin="round" stroke-miterlimit="10" x1="67.293" y1="56.286" x2="8.583" y2="56.286"/>
<line fill="none" stroke="#FF0000" stroke-width="5" stroke-linecap="round" stroke-linejoin="round" stroke-miterlimit="10" x1="73.314" y1="43.265" x2="8.577" y2="43.265"/>
<line fill="none" stroke="#FF0000" stroke-width="5" stroke-linecap="round" stroke-linejoin="round" stroke-miterlimit="10" x1="83.51" y1="29.706" x2="8.583" y2="29.706"/>
<path fill="none" stroke="#FF0000" stroke-width="5" stroke-linecap="round" stroke-linejoin="round" stroke-miterlimit="10" d="
	M78.438,65.989l41.176,41.185V20.936L78.438,62.121C77.365,63.189,77.365,64.92,78.438,65.989L78.438,65.989z"/>
</svg>
