<?xml version="1.0" encoding="utf-8"?>
<!-- Generator: Adobe Illustrator 16.0.0, SVG Export Plug-In . SVG Version: 6.00 Build 0)  -->
<!DOCTYPE svg PUBLIC "-//W3C//DTD SVG 1.1//EN" "http://www.w3.org/Graphics/SVG/1.1/DTD/svg11.dtd">
<svg version="1.1" id="Calque_1" xmlns="http://www.w3.org/2000/svg" xmlns:xlink="http://www.w3.org/1999/xlink" x="0px" y="0px"
	 width="128px" height="128px" viewBox="0 0 128 128" enable-background="new 0 0 128 128" xml:space="preserve">
<g id="Calque_3">
</g>
<g>
	<path fill="#FF0000" d="M115.676,99.96l0.033,0.045L70.713,22.658l-0.021-0.018c-0.961-1.392-1.977-2.455-3.025-3.181
		c-1.183-0.818-2.407-1.23-3.665-1.23c-1.26,0-2.485,0.412-3.667,1.23c-1.048,0.726-2.061,1.789-3.026,3.181l-0.021,0.018
		l-44.997,77.347l0.033-0.045c-1.207,1.709-1.562,3.558-1.257,5.179v-0.012c0.134,0.732,0.403,1.41,0.782,2.011
		c0.392,0.624,0.887,1.161,1.482,1.577v-0.01c1.18,0.84,2.718,1.249,4.465,0.986l92.41-0.003c1.746,0.263,3.288-0.144,4.471-0.983
		v0.01c0.586-0.418,1.087-0.953,1.481-1.577c0.373-0.601,0.647-1.278,0.776-1.999C117.241,103.515,116.886,101.666,115.676,99.96z
		 M70.062,48.082L68.29,77.564h-8.584l-1.768-29.482H70.062z M63.998,97.768c-4.417-0.003-6.852-3.542-6.852-6.583
		c0-3.13,2.56-6.58,6.852-6.58c4.546,0,6.852,3.45,6.852,6.58C70.85,94.226,68.544,97.768,63.998,97.768z"/>
</g>
</svg>
