<?xml version="1.0" encoding="utf-8"?>
<!-- Generator: Adobe Illustrator 16.0.0, SVG Export Plug-In . SVG Version: 6.00 Build 0)  -->
<!DOCTYPE svg PUBLIC "-//W3C//DTD SVG 1.1//EN" "http://www.w3.org/Graphics/SVG/1.1/DTD/svg11.dtd">
<svg version="1.1" id="Calque_1" xmlns="http://www.w3.org/2000/svg" xmlns:xlink="http://www.w3.org/1999/xlink" x="0px" y="0px"
	 width="128px" height="128px" viewBox="0 0 128 128" enable-background="new 0 0 128 128" xml:space="preserve">
<path fill="none" stroke="#E52620" stroke-width="5.1258" stroke-miterlimit="10" d="M90.796,52.483
	c-17.823,0-32.251,14.437-32.251,32.251s14.428,32.252,32.251,32.252c13.956,0,25.795-8.881,30.285-21.293"/>
<path fill="none" stroke="#E52620" stroke-width="5.1258" stroke-miterlimit="10" d="M121.091,95.693
	c1.237-3.426,1.968-7.104,1.968-10.959c0-17.814-14.441-32.251-32.252-32.251"/>
<path fill="none" stroke="#FF0000" stroke-width="5.1258" stroke-miterlimit="10" d="M89.814,52.483
	c5.813,0,11.248,1.557,15.953,4.245V24.374c0-2.395-2.363-4.333-5.279-4.333H9.454c-2.918,0-5.281,1.932-5.281,4.333v72.51
	c0,2.394,2.363,4.325,5.281,4.325h52.649c-2.878-4.826-4.56-10.441-4.56-16.464C57.563,66.92,72.01,52.483,89.814,52.483
	L89.814,52.483z"/>
<path fill="none" stroke="#FF0000" stroke-width="10.2517" stroke-miterlimit="10" d="M4.033,34.558h39.725 M44.179,45.215h27.766
	 M19.675,59.757h28.413 M48.393,70.414h13.53 M2.326,86.452h51.043"/>
<path fill="#FF0000" d="M86.529,102.842L86.529,102.842c-1.051,0-2.057-0.4-2.854-1.15L70.611,89.223
	c-1.646-1.588-1.707-4.172-0.135-5.854c1.576-1.626,4.181-1.701,5.836-0.119l9.603,9.154l16.879-24.031
	c1.312-1.854,3.896-2.305,5.741-0.991c1.861,1.308,2.313,3.884,1.007,5.746L89.904,101.08c-0.691,0.977-1.777,1.605-2.969,1.74
	C86.807,102.832,86.665,102.842,86.529,102.842"/>
</svg>
