<?xml version="1.0" encoding="utf-8"?>
<!-- Generator: Adobe Illustrator 16.0.0, SVG Export Plug-In . SVG Version: 6.00 Build 0)  -->
<!DOCTYPE svg PUBLIC "-//W3C//DTD SVG 1.1//EN" "http://www.w3.org/Graphics/SVG/1.1/DTD/svg11.dtd">
<svg version="1.1" id="Calque_2" xmlns="http://www.w3.org/2000/svg" xmlns:xlink="http://www.w3.org/1999/xlink" x="0px" y="0px"
	 width="128px" height="128px" viewBox="0 0 128 128" enable-background="new 0 0 128 128" xml:space="preserve">
<path fill="#FF0000" d="M53.1,72c-8.5,0-15.1-9.2-18.3-14.6c-2.9-5-4.4-10.9-4.4-17.2c0-1.4,1.1-2.5,2.5-2.5s2.5,1.1,2.5,2.5
	c0,5.4,1.3,10.4,3.8,14.7c2.1,3.7,7.7,12.1,14,12.1c4.5,0,9.8-4.6,14.1-12.4c2.3-4.2,3.601-9.1,3.601-14.4c0-1.4,1.1-2.5,2.5-2.5
	c1.399,0,2.5,1.1,2.5,2.5c0,6.1-1.5,11.9-4.2,16.8C68.5,62.6,61.9,72,53.1,72z"/>
<path fill="#FF0000" d="M100.1,105.2c-1.399,0-2.5-1.101-2.5-2.4c0-1.399,1.101-2.5,2.4-2.6c16.3-0.4,21.2-3,22.4-3.8
	c0.3-3.301,0.6-16.5-14.5-21.4c-1.9,2.1-5.9,5.4-12.7,5.4S84.3,77.1,82.4,75C80,75.8,77.8,76.8,76,78c-1.1,0.8-2.7,0.5-3.5-0.7
	c-0.8-1.1-0.5-2.7,0.7-3.5c2.7-1.8,5.899-3.3,9.5-4.2c1.1-0.3,2.2,0.2,2.8,1.101c0.1,0.2,2.9,4.6,9.6,4.6
	c6.801,0,9.601-4.399,9.7-4.6c0.601-0.9,1.7-1.4,2.8-1.101c23.101,6,19.7,28,19.7,28.2s-0.1,0.4-0.2,0.601
	C126.3,100.4,122,104.6,100.1,105.2C100.2,105.2,100.1,105.2,100.1,105.2z"/>
<path fill="#FF0000" d="M52.5,127.5c-43.7,0-49.8-8.3-50.6-9.9l-0.1-0.3L1.7,117c-0.1-0.3-5.4-34.7,30.9-44.2l1.8-0.5l1,1.601
	c0.2,0.3,5.1,8.199,17,8.199h0.1c11.9,0,16.8-7.899,17-8.199l1-1.601l1.8,0.5c36.3,9.5,31,43.8,30.9,44.2l-0.101,0.3l-0.1,0.3
	C102.3,119.2,96.3,127.5,52.5,127.5z M6.6,115.5c1.4,1.3,9.8,7,46,7c36.2,0,44.5-5.8,45.9-7c0.5-4.4,2.3-29.2-25.7-37.4
	c-2.399,3-8.7,9.101-20.1,9.101h-0.1C41,87.1,34.7,81,32.3,78C4.3,86.3,6,111.1,6.6,115.5z"/>
<path fill="#FF0000" d="M79.8,28.4h-3.5c-1-7.6-1.899-11.5-6.5-16.1L61.3,26l1.9-20.3c-3.2-2-6.9-2.6-10.7-2.6c-3.1,0-6,1.3-8.7,2.6
	L45.2,26l-9.7-14c-5.2,4.6-5.7,8.2-6.8,16.4h-3.5c-0.5,0-1,0.4-1,1v8.5c0,0.5,0.4,1,1,1h54.6c0.5,0,1-0.4,1-1v-8.5
	C80.7,28.8,80.3,28.4,79.8,28.4z"/>
<path fill="#FF0000" d="M95.6,69.4C89.3,69.4,84.5,62.8,82.2,58.8C80.1,55.3,79,51,79,46.5c0-1.4,1.1-2.5,2.5-2.5s2.5,1.1,2.5,2.5
	c0,3.6,0.9,7,2.5,9.8c2.9,5.1,6.3,8.1,9.1,8.1c2.801,0,6.301-3.1,9.2-8.3c1.601-2.8,2.4-6.1,2.4-9.6c0-1.4,1.1-2.5,2.5-2.5
	c1.399,0,2.5,1.1,2.5,2.5c0,4.4-1.101,8.5-3,12.1C106.9,62.6,102.1,69.4,95.6,69.4z"/>
<path fill="#FF0000" d="M114.2,38.3h-2.5c-0.7-5.3-1.3-8-4.5-11.2l-5.9,9.5l1.3-14.1c-2.3-1.4-4.8-1.8-7.5-1.8
	c-2.1,0-4.199,0.9-6,1.8l1,14.1L83.4,26.8c-3.601,3.2-3.9,5.7-4.7,11.4h-2.5c-0.4,0-0.7,0.3-0.7,0.7v5.9c0,0.4,0.3,0.7,0.7,0.7h38
	c0.399,0,0.7-0.3,0.7-0.7V39C114.8,38.6,114.5,38.3,114.2,38.3z"/>
<line fill="none" stroke="#FF0000" stroke-width="10" stroke-linecap="round" stroke-miterlimit="10" x1="118.79" y1="8.669" x2="7.679" y2="117.513"/>
</svg>
