<?xml version="1.0" encoding="utf-8"?>
<!-- Generator: Adobe Illustrator 16.0.0, SVG Export Plug-In . SVG Version: 6.00 Build 0)  -->
<!DOCTYPE svg PUBLIC "-//W3C//DTD SVG 1.1//EN" "http://www.w3.org/Graphics/SVG/1.1/DTD/svg11.dtd">
<svg version="1.1" id="Calque_1" xmlns="http://www.w3.org/2000/svg" xmlns:xlink="http://www.w3.org/1999/xlink" x="0px" y="0px"
	 width="128px" height="128px" viewBox="0 0 128 128" enable-background="new 0 0 128 128" xml:space="preserve">
<g id="Calque_2" display="none">
</g>
<g>
	<g>
		<g>
			<g>
				
					<path fill="none" stroke="#FF0000" stroke-width="5" stroke-linecap="round" stroke-linejoin="round" stroke-miterlimit="10" d="
					M120.294,74.587v26.382c0,0,0.17,4.923-4.326,4.923c-1.931,0-27.014,0-27.014,0H68.931H54.512H7.756
					c-2.535,0-4.609-2.076-4.609-4.615V89.401V20.129c0-2.539,2.076-4.61,4.609-4.61h46.411"/>
			</g>
		</g>
	</g>
	
		<line fill="none" stroke="#FF0000" stroke-width="5" stroke-linecap="round" stroke-linejoin="round" stroke-miterlimit="10" x1="61.333" y1="105.892" x2="61.333" y2="123.921"/>
	
		<line fill="none" stroke="#FF0000" stroke-width="5" stroke-linecap="round" stroke-linejoin="round" stroke-miterlimit="10" x1="97.056" y1="126.587" x2="25.943" y2="126.587"/>
</g>
<path id="path12_1_" fill="none" stroke="#FF0000" stroke-width="5" stroke-miterlimit="10" d="M126.601,62.385
	c0,1.492-1.209,2.702-2.701,2.702H66.495c-1.492,0-2.702-1.209-2.702-2.702V4.115c0-1.492,1.21-2.702,2.702-2.702h57.404
	c1.492,0,2.701,1.209,2.701,2.702V62.385z"/>
<line fill="none" stroke="#FF0000" stroke-width="5" stroke-linecap="round" stroke-miterlimit="10" x1="74.167" y1="14.167" x2="100.389" y2="14.167"/>
<line fill="none" stroke="#FF0000" stroke-width="5" stroke-linecap="round" stroke-miterlimit="10" x1="74.167" y1="57.167" x2="77.834" y2="57.167"/>
<line fill="none" stroke="#FF0000" stroke-width="5" stroke-linecap="round" stroke-miterlimit="10" x1="85.444" y1="57.167" x2="89.111" y2="57.167"/>
<line fill="none" stroke="#FF0000" stroke-width="5" stroke-linecap="round" stroke-miterlimit="10" x1="96.222" y1="57.167" x2="99.889" y2="57.167"/>
<line fill="none" stroke="#FF0000" stroke-width="5" stroke-linecap="round" stroke-miterlimit="10" x1="74.167" y1="32.5" x2="117.167" y2="32.5"/>
<line fill="none" stroke="#FF0000" stroke-width="5" stroke-linecap="round" stroke-miterlimit="10" x1="74.167" y1="42.333" x2="117.167" y2="42.333"/>
</svg>
