<?xml version="1.0" encoding="iso-8859-1"?>
<!-- Generator: Adobe Illustrator 16.0.0, SVG Export Plug-In . SVG Version: 6.00 Build 0)  -->
<!DOCTYPE svg PUBLIC "-//W3C//DTD SVG 1.1//EN" "http://www.w3.org/Graphics/SVG/1.1/DTD/svg11.dtd">
<svg version="1.1" id="Calque_1" xmlns="http://www.w3.org/2000/svg" xmlns:xlink="http://www.w3.org/1999/xlink" x="0px" y="0px"
	 width="128px" height="128px" viewBox="0 0 128 128" style="enable-background:new 0 0 128 128;" xml:space="preserve">
<g id="Calque_2" style="display:none;">
	<g style="display:inline;">
		<path style="fill:none;" d="M65.085,64.747c9.406,0,15.547-12.935,16.563-26.153h-30.49c-0.851,0.106-1.718,0.198-2.616,0.25
			C49.617,51.975,55.738,64.747,65.085,64.747z"/>
		<path style="fill:none;" d="M92.959,75.411l-9.646-3.521L67.88,80.637l-5.938-0.092l-15.506-8.65l-9.566,3.521
			c-1.507,0.729-19.394,9.841-18.328,33.109c0.541,0.854,3.165,4.104,11.531,4.178c-0.264-4.405-0.719-14.237-0.156-22.854
			l4.739,0.312c-0.606,9.284,0.032,20.394,0.246,23.604c5.498,4.862,17.007,7.817,30.305,7.705
			c12.979-0.098,24.488-3.1,29.764-7.701c0.194-3.279,0.781-14.629,0.146-23.761l4.738-0.325c0.595,8.51,0.179,18.563-0.063,23.021
			c8.269-0.072,10.908-3.269,11.493-4.19C112.336,85.279,94.51,76.16,92.959,75.411z"/>
		<path style="fill:#FF0000;" d="M42.041,37.594c0,0.002,0,1.004,0,1.006c-1.305,2.819-1.772,7.667,4.469,13.882
			c3.377,9.688,9.662,17.016,18.575,17.016c8.739,0,15.188-7.482,18.631-17.413c5.837-6.035,5.343-11.733,4.063-14.491H42.041z
			 M81.646,38.594c-1.021,13.218-7.155,26.153-16.563,26.153c-9.347,0-15.468-12.772-16.543-25.903L81.646,38.594z"/>
		<path style="fill:#FF0000;" d="M94.869,71.063l-14.21-5.19l-12.675,7.407h-6.221l-12.676-7.422L35.13,70.988l-0.173,0.072
			c-0.229,0.104-22.684,10.771-21.134,38.211l0.021,0.354l0.12,0.331c0.119,0.321,2.909,7.502,16.378,7.502
			c0.5,0,1.019-0.015,1.55-0.035c6.384,5.541,18.402,8.798,32.667,8.798c0.229,0,0.455-0.002,0.688-0.004
			c11.188-0.078,25.396-2.453,32.741-8.793c14.76,0.547,17.746-7.134,17.869-7.469l0.123-0.33l0.021-0.354
			C117.55,81.837,95.096,71.166,94.869,71.063z M111.283,108.508c-0.586,0.924-3.227,4.118-11.493,4.189
			c0.241-4.459,0.657-14.51,0.065-23.02l-4.74,0.33c0.637,9.127,0.05,20.477-0.146,23.754c-5.273,4.608-16.783,7.61-29.763,7.705
			c-13.298,0.115-24.808-2.84-30.305-7.707c-0.213-3.213-0.852-14.316-0.246-23.604l-4.739-0.311
			c-0.563,8.608-0.108,18.44,0.156,22.854c-8.366-0.067-10.99-3.319-11.531-4.174C17.476,85.253,35.362,76.13,36.869,75.412
			l9.566-3.518l15.506,8.646l5.938,0.091l15.434-8.742l9.646,3.521C94.51,76.16,112.336,85.279,111.283,108.508z"/>
	</g>
	<path style="display:inline;fill:#FFFFFF;" d="M18.496,121.471"/>
</g>
<g id="Calque_5" style="display:none;">
	<g style="display:inline;">
		<path style="fill:#FF0000;" d="M87.629,39.398h6.232c1.215,0,2.199-0.984,2.199-2.199c0-1.214-0.984-2.199-2.199-2.199H90.92
			c0.016-0.334,0.023-0.671,0.023-1.009c0-10.568-6.178-19.661-15.055-23.763c0.021,1.039,0.026,2.212,0.026,3.533v3.8
			c0,10.968-0.601,11.62-10.622,11.62c-10.028,0-10.623-0.652-10.623-11.62v-3.8c0-1.326,0.009-2.498,0.042-3.54
			c-8.881,4.101-15.063,13.198-15.063,23.77c0,0.341,0.03,0.673,0.046,1.009H35.66c-1.214,0-2.199,0.985-2.199,2.199
			c0.001,1.214,0.986,2.199,2.2,2.199h6.227c0,0.002,0,0.004,0,0.006L87.629,39.398z"/>
		<path style="fill:#FF0000;" d="M73.223,9.171c-0.084-1.763-0.281-2.937-0.77-3.485c-0.77-0.865-3.1-0.907-7.153-0.907
			c-3.994,0-6.394,0-7.163,0.853c-0.487,0.541-0.682,1.733-0.763,3.539c0,0,0,0-0.001,0c-0.055,1.239-0.059,2.759-0.059,4.589v3.8
			h0.002c0,4.501,0,7.218,0.823,8.129c0.77,0.852,3.175,0.852,7.161,0.852c3.985,0,6.392,0,7.159-0.852
			c0.824-0.911,0.824-3.627,0.824-8.129v-3.8C73.283,11.925,73.279,10.407,73.223,9.171"/>
	</g>
</g>
<g id="Calque_4" style="display:none;">
</g>
<path style="fill:#FF0000;" d="M64,127.387c-45.924,0-52.336-8.636-53.155-10.367c-0.086-0.182-0.15-0.373-0.19-0.57
	c-0.062-0.303-5.736-30.435,32.446-40.418c1.08-0.28,2.219,0.188,2.786,1.148c0.208,0.345,5.408,8.707,17.993,8.707H64
	c12.71,0,17.941-8.62,17.993-8.707c0.567-0.962,1.702-1.43,2.786-1.148c38.182,9.983,32.508,40.115,32.445,40.418
	c-0.038,0.188-0.098,0.371-0.178,0.545C116.249,118.729,109.942,127.387,64,127.387z M15.464,114.899
	c1.347,1.264,9.954,7.487,48.536,7.487c39.455,0,47.447-6.408,48.398-7.363c0.521-3.435,2.548-25.126-27.237-33.702
	c-2.475,3.097-9.089,9.565-21.161,9.565h-0.12c-12.073,0-18.687-6.469-21.161-9.565C13.288,89.796,14.917,111.075,15.464,114.899z"
	/>
<path style="fill:#FF0000;" d="M63.393,75.563c-8.534,0-15.134-9.173-18.309-14.641c-2.904-4.999-4.44-10.944-4.44-17.193
	c0-0.663,0.263-1.299,0.732-1.768c0.469-0.469,1.104-0.732,1.768-0.732l0,0l40.499,0.001c1.381,0,2.5,1.119,2.5,2.5
	c0,6.094-1.466,11.92-4.239,16.847C78.751,66.173,72.154,75.563,63.393,75.563z M45.739,46.228
	c0.341,4.438,1.592,8.609,3.668,12.182c2.122,3.654,7.731,12.152,13.985,12.152c4.475,0,9.766-4.65,14.153-12.44
	c1.976-3.508,3.169-7.579,3.501-11.893L45.739,46.228z"/>
<path style="fill:#FF0000;" d="M93.25,33.609h-3.93c-1.149-8.443-2.123-12.809-7.223-17.902l-9.406,15.232l2.095-22.626
	c-3.606-2.271-7.67-2.919-11.974-2.919c-3.418,0-6.685,1.448-9.693,2.919l1.551,22.626L43.86,15.292
	c-5.771,5.096-6.311,9.188-7.553,18.317h-3.93c-0.589,0-1.068,0.478-1.068,1.068v9.478c0,0.589,0.479,1.068,1.068,1.068H93.25
	c0.59,0,1.066-0.479,1.066-1.068v-9.478C94.316,34.087,93.84,33.609,93.25,33.609z"/>
<g id="Calque_2_1_" style="display:none;">
	<g style="display:inline;">
		<path style="fill:#FF0000;" d="M57.937,25.903L53.711,7.718c0,0-2.537-7.188,4.227-7.188c6.766,0,8.57,0,10.574,0
			c2.467,0,6.764,1.269,4.648,8.033C71.047,15.332,68.932,25.9,68.932,25.9"/>
		<path style="fill:#FF0000;" d="M76.967,8.141c14.377,4.232,19.874,29.075,19.874,29.075s5.499-0.741,5.499,5.261
			c0,6-5.919,5.188-5.919,5.188H30.874c0,0-6.343,1.075-6.343-5.27c0-6.344,6.343-5.073,6.343-5.073s1.268-19.031,19.03-29.181"/>
	</g>
</g>
</svg>
