<?xml version="1.0" encoding="utf-8"?>
<!-- Generator: Adobe Illustrator 16.0.0, SVG Export Plug-In . SVG Version: 6.00 Build 0)  -->
<!DOCTYPE svg PUBLIC "-//W3C//DTD SVG 1.1//EN" "http://www.w3.org/Graphics/SVG/1.1/DTD/svg11.dtd">
<svg version="1.1" id="Calque_1" xmlns="http://www.w3.org/2000/svg" xmlns:xlink="http://www.w3.org/1999/xlink" x="0px" y="0px"
	 width="128px" height="128px" viewBox="0 0 128 128" enable-background="new 0 0 128 128" xml:space="preserve">
<g>
	<g>
		
			<line fill="#FF0000" stroke="#FF0000" stroke-width="6.4676" stroke-linecap="round" stroke-linejoin="round" x1="12.608" y1="71.284" x2="98.482" y2="71.284"/>
		<g>
			<polygon fill="#FF0000" stroke="#FF0000" stroke-miterlimit="10" points="92.82,90.634 126.328,71.286 92.82,51.937 			"/>
		</g>
	</g>
</g>
<path fill="#FF0000" d="M20.697,71.284c0,4.468-3.62,8.08-8.089,8.08c-4.46,0-8.081-3.612-8.081-8.08
	c0-4.47,3.621-8.081,8.081-8.081C17.077,63.203,20.697,66.814,20.697,71.284z"/>
<path fill="#FF0000" d="M48.475,71.284c0,4.468-3.62,8.08-8.087,8.08c-4.461,0-8.081-3.612-8.081-8.08
	c0-4.47,3.62-8.081,8.081-8.081C44.855,63.203,48.475,66.814,48.475,71.284z"/>
<path fill="#FF0000" d="M77.828,71.284c0,4.468-3.621,8.08-8.09,8.08c-4.471,0-8.081-3.612-8.081-8.08
	c0-4.47,3.61-8.081,8.081-8.081C74.207,63.203,77.828,66.814,77.828,71.284z"/>
</svg>
