<?xml version="1.0" encoding="iso-8859-1"?>
<!-- Generator: Adobe Illustrator 16.0.0, SVG Export Plug-In . SVG Version: 6.00 Build 0)  -->
<!DOCTYPE svg PUBLIC "-//W3C//DTD SVG 1.1//EN" "http://www.w3.org/Graphics/SVG/1.1/DTD/svg11.dtd">
<svg version="1.1" id="Calque_2" xmlns="http://www.w3.org/2000/svg" xmlns:xlink="http://www.w3.org/1999/xlink" x="0px" y="0px"
	 width="128px" height="128px" viewBox="0 0 128 128" style="enable-background:new 0 0 128 128;" xml:space="preserve">
<path style="fill:#FF0000;" d="M53.112,71.954c-8.528,0-15.124-9.168-18.297-14.634c-2.903-4.993-4.438-10.935-4.438-17.18
	c0-15.933,10.2-28.896,22.737-28.896c12.535,0.002,22.732,12.965,22.732,28.896c0,6.092-1.464,11.914-4.233,16.835
	C68.46,62.57,61.865,71.954,53.112,71.954z M53.113,16.244c-9.78,0-17.736,10.72-17.736,23.896c0,5.364,1.301,10.436,3.761,14.668
	c2.121,3.653,7.726,12.146,13.974,12.146c4.47,0,9.757-4.647,14.144-12.432c2.349-4.173,3.59-9.147,3.59-14.382
	C70.846,26.965,62.891,16.246,53.113,16.244z"/>
<path style="fill:#FF0000;" d="M95.167,69.846c-6.351,0-11.165-6.659-13.47-10.628c-2.101-3.613-3.211-7.908-3.211-12.417
	c0-11.579,7.484-20.999,16.684-20.999c9.198,0,16.682,9.42,16.682,20.999c0,4.396-1.061,8.604-3.068,12.167
	C106.496,63.029,101.686,69.846,95.167,69.846z M95.17,30.801c-6.442,0-11.684,7.177-11.684,15.999c0,3.628,0.876,7.054,2.534,9.906
	c2.96,5.098,6.379,8.14,9.146,8.14c2.861,0,6.322-3.115,9.26-8.333c1.587-2.816,2.425-6.175,2.425-9.713
	C106.852,37.978,101.611,30.801,95.17,30.801z"/>
<path style="fill:#FF0000;" d="M100.12,105.18c-1.351,0-2.463-1.077-2.498-2.436c-0.036-1.38,1.054-2.528,2.435-2.563
	c16.321-0.422,21.22-2.973,22.374-3.782c0.31-3.284,0.572-16.548-14.547-21.36c-1.851,2.076-5.887,5.421-12.683,5.421
	c-6.849,0-10.899-3.345-12.753-5.421c-2.421,0.769-4.567,1.788-6.397,3.038c-1.14,0.779-2.695,0.487-3.475-0.654
	c-0.778-1.141-0.485-2.696,0.654-3.475c2.691-1.838,5.895-3.251,9.52-4.2c1.078-0.281,2.219,0.187,2.786,1.148
	c0.104,0.167,2.89,4.563,9.594,4.563c6.773,0,9.561-4.396,9.677-4.584c0.576-0.935,1.714-1.404,2.772-1.128
	c23.132,6.048,19.732,27.977,19.695,28.198c-0.037,0.218-0.103,0.431-0.195,0.632c-0.828,1.797-5.105,6.038-26.894,6.602
	C100.164,105.18,100.142,105.18,100.12,105.18z"/>
<path style="fill:#FF0000;" d="M52.542,127.484c-43.715,0-49.84-8.265-50.624-9.922l-0.148-0.313l-0.057-0.342
	c-0.058-0.346-5.38-34.674,30.937-44.168l1.826-0.478l0.959,1.626c0.196,0.324,5.108,8.21,16.99,8.21h0.115
	c11.883,0,16.795-7.886,16.999-8.222l0.966-1.596l1.812,0.459c36.318,9.494,30.996,43.822,30.938,44.168l-0.056,0.327l-0.139,0.302
	C102.299,119.197,96.278,127.484,52.542,127.484z M6.557,115.452c1.397,1.262,9.777,7.032,45.985,7.032
	c36.226,0,44.507-5.775,45.868-7.021c0.529-4.354,2.253-29.172-25.72-37.432c-2.409,2.987-8.718,9.065-20.149,9.065h-0.115
	c-11.431,0-17.739-6.078-20.149-9.065C4.337,86.283,6.024,111.054,6.557,115.452z"/>
</svg>
