<?xml version="1.0" encoding="utf-8"?>
<!-- Generator: Adobe Illustrator 16.0.0, SVG Export Plug-In . SVG Version: 6.00 Build 0)  -->
<!DOCTYPE svg PUBLIC "-//W3C//DTD SVG 1.1//EN" "http://www.w3.org/Graphics/SVG/1.1/DTD/svg11.dtd">
<svg version="1.1" id="Calque_4" xmlns="http://www.w3.org/2000/svg" xmlns:xlink="http://www.w3.org/1999/xlink" x="0px" y="0px"
	 width="128px" height="128px" viewBox="0 0 128 128" enable-background="new 0 0 128 128" xml:space="preserve">
<g>
	<path fill="#FF0000" d="M55.176,80.469c0,1.479-0.259,2.922-0.775,4.33c-0.517,1.411-1.255,2.596-2.215,3.557
		c-1.314,1.299-2.78,2.281-4.396,2.944c-1.617,0.665-3.629,0.997-6.036,0.997H36.46v10.742h-8.505V70.061h13.998
		c2.097,0,3.865,0.18,5.305,0.541c1.44,0.362,2.713,0.905,3.821,1.629c1.329,0.871,2.344,1.985,3.045,3.345
		C54.825,76.934,55.176,78.564,55.176,80.469z M46.382,80.658c0-0.928-0.251-1.727-0.753-2.396c-0.502-0.671-1.085-1.139-1.75-1.404
		c-0.886-0.354-1.75-0.549-2.591-0.586c-0.842-0.035-1.964-0.055-3.367-0.055h-1.462v9.855h2.437c1.447,0,2.639-0.088,3.577-0.266
		c0.938-0.177,1.724-0.529,2.359-1.061c0.546-0.473,0.941-1.035,1.185-1.689C46.261,82.4,46.382,81.602,46.382,80.658z"/>
	<path fill="#FF0000" d="M91.003,86.582c0,3.07-0.7,5.822-2.104,8.251c-1.401,2.429-3.174,4.293-5.314,5.593
		c-1.609,0.975-3.374,1.653-5.294,2.037c-1.919,0.385-4.192,0.576-6.821,0.576h-11.63V70.061H71.8c2.688,0,5.007,0.225,6.955,0.674
		c1.948,0.451,3.588,1.091,4.917,1.916c2.273,1.39,4.064,3.261,5.371,5.615C90.35,80.621,91.003,83.393,91.003,86.582z
		 M82.21,86.516c0-2.17-0.396-4.027-1.187-5.57c-0.789-1.543-2.041-2.75-3.754-3.62c-0.871-0.429-1.761-0.72-2.668-0.875
		c-0.908-0.155-2.278-0.231-4.108-0.231h-2.147v20.643h2.147c2.022,0,3.507-0.092,4.452-0.276c0.943-0.185,1.867-0.521,2.769-1.008
		c1.55-0.888,2.687-2.071,3.41-3.556C81.848,90.536,82.21,88.701,82.21,86.516z"/>
	<path fill="#FF0000" d="M119.766,76.438h-15.173v6.135h14.065v6.38h-14.065v14.087h-8.461V70.061h23.634V76.438z"/>
</g>
<g>
	<path fill="none" stroke="#FF0000" stroke-width="5" stroke-miterlimit="10" d="M90.23,17.133v-5.742
		c0-2.908-2.354-5.261-5.263-5.261H11.975c-2.908,0-5.261,2.353-5.261,5.261v105.218c0,2.908,2.353,5.261,5.261,5.261h72.994
		c2.908,0,5.262-2.353,5.262-5.261v-6.026"/>
</g>
<g id="Layer_1_1_">
	<path id="path2" fill="#FF0000" stroke="#FF0000" stroke-miterlimit="10" d="M32.535,56.503c3.611,3.611,8.414,5.6,13.516,5.603
		l58.015,0.004c8.615,0,15.628-7.012,15.627-15.628c0-8.617-7.013-15.629-15.629-15.629l-51.576-0.002
		c-3.244,0.005-6.288,1.264-8.581,3.553c-2.295,2.296-3.555,5.339-3.554,8.578c-0.004,3.244,1.264,6.291,3.555,8.583
		c2.291,2.292,5.336,3.557,8.58,3.554l42.256,0.001l-0.001-3.3L52.484,51.82c-2.356,0.001-4.579-0.918-6.252-2.592
		c-1.667-1.667-2.587-3.89-2.586-6.247c-0.001-2.354,0.92-4.579,2.587-6.246c1.673-1.669,3.896-2.589,6.254-2.591l51.576-0.003
		c6.804,0.002,12.338,5.537,12.335,12.334c-0.001,6.798-5.535,12.333-12.333,12.334l-58.01,0c-4.23,0-8.206-1.648-11.193-4.635
		c-6.172-6.172-6.171-16.213-0.001-22.383c2.993-2.993,6.966-4.642,11.195-4.641l53.347,0.005l-0.004-3.296H46.054
		c-5.103-0.001-9.907,1.987-13.523,5.603C25.079,36.915,25.081,49.049,32.535,56.503z"/>
</g>
</svg>
