<?xml version="1.0" encoding="utf-8"?>
<!-- Generator: Adobe Illustrator 16.0.0, SVG Export Plug-In . SVG Version: 6.00 Build 0)  -->
<!DOCTYPE svg PUBLIC "-//W3C//DTD SVG 1.1//EN" "http://www.w3.org/Graphics/SVG/1.1/DTD/svg11.dtd">
<svg version="1.1" id="Calque_1" xmlns="http://www.w3.org/2000/svg" xmlns:xlink="http://www.w3.org/1999/xlink" x="0px" y="0px"
	 width="128px" height="128px" viewBox="0 0 128 128" enable-background="new 0 0 128 128" xml:space="preserve">
<g>
	
		<path fill="none" stroke="#FF0000" stroke-width="6.2742" stroke-linecap="round" stroke-linejoin="round" stroke-miterlimit="10" d="
		M10.541,43.678h95.258c6.448,0,11.723,5.273,11.723,11.721v57.511c0,6.445-5.271,11.724-11.723,11.724H10.541V43.678z"/>
	
		<path fill="none" stroke="#FF0000" stroke-width="6.2742" stroke-linecap="round" stroke-linejoin="round" stroke-miterlimit="10" d="
		M117.521,100.15H98.083c-8.796,0-15.996-7.196-15.996-15.998l0,0c0-8.795,7.2-15.995,15.996-15.995h19.437"/>
	
		<circle fill="none" stroke="#FF0000" stroke-width="6.2742" stroke-linecap="round" stroke-linejoin="round" cx="95.932" cy="84.155" r="2.287"/>
</g>
<line id="line16" fill="none" stroke="#FF0000" stroke-width="5" stroke-linecap="round" stroke-linejoin="round" stroke-miterlimit="10" x1="59.602" y1="42.653" x2="59.602" y2="18.542"/>
<line id="line18" fill="none" stroke="#FF0000" stroke-width="5" stroke-linecap="round" stroke-linejoin="round" stroke-miterlimit="10" x1="44.724" y1="17.164" x2="73.677" y2="17.164"/>
<path id="path22" fill="none" stroke="#FF0000" stroke-width="5" stroke-linecap="round" stroke-linejoin="round" stroke-miterlimit="10" d="
	M10.863,31.976c0,0.148,0.534,0.269,1.193,0.269h29.833c0.659,0,1.193-0.121,1.193-0.269V2.478c0-0.148-0.535-0.269-1.193-0.269
	H12.056c-0.659,0-1.193,0.121-1.193,0.269V31.976z"/>
<path id="path22-1" fill="none" stroke="#FF0000" stroke-width="5" stroke-linecap="round" stroke-linejoin="round" stroke-miterlimit="10" d="
	M75.484,33.017c0,0.148,0.534,0.269,1.193,0.269h29.832c0.659,0,1.194-0.121,1.194-0.269V3.519c0-0.149-0.535-0.269-1.194-0.269
	H76.678c-0.659,0-1.193,0.12-1.193,0.269V33.017z"/>
</svg>
