<?xml version="1.0" encoding="utf-8"?>
<!-- Generator: Adobe Illustrator 16.0.0, SVG Export Plug-In . SVG Version: 6.00 Build 0)  -->
<!DOCTYPE svg PUBLIC "-//W3C//DTD SVG 1.1//EN" "http://www.w3.org/Graphics/SVG/1.1/DTD/svg11.dtd">
<svg version="1.1" id="Calque_1" xmlns="http://www.w3.org/2000/svg" xmlns:xlink="http://www.w3.org/1999/xlink" x="0px" y="0px"
	 width="128px" height="128px" viewBox="0 0 128 128" enable-background="new 0 0 128 128" xml:space="preserve">
<g id="Calque_2">
	<g>
		<path fill="none" stroke="#FF0000" stroke-width="5" stroke-linecap="round" stroke-linejoin="round" stroke-miterlimit="10" d="
			M65.806,46.866l-0.271-1.377c-0.266-1.345-0.401-2.718-0.401-4.08c0-5.521,2.149-10.708,6.051-14.605L86.716,11.27
			c3.905-3.907,9.103-6.059,14.632-6.063c5.528,0.004,10.726,2.156,14.632,6.063c3.906,3.898,6.055,9.091,6.055,14.623
			c0,5.522-2.148,10.724-6.055,14.641L100.44,56.052c-3.897,3.902-9.092,6.051-14.617,6.059c-1.37-0.008-2.748-0.141-4.104-0.396
			l-1.383-0.263"/>
		<path fill="none" stroke="#FF0000" stroke-width="5" stroke-linecap="round" stroke-linejoin="round" stroke-miterlimit="10" d="
			M60.679,81.126l0.277,1.388c0.277,1.36,0.411,2.73,0.411,4.067c-0.007,5.524-2.164,10.714-6.073,14.618L39.767,116.74
			c-3.908,3.894-9.105,6.045-14.634,6.054c-5.511-0.009-10.707-2.161-14.618-6.063c-3.91-3.901-6.054-9.101-6.069-14.627
			c0.015-5.532,2.159-10.724,6.069-14.633l15.526-15.527c3.911-3.91,9.106-6.061,14.618-6.061c1.384,0,2.738,0.13,4.024,0.403
			l1.376,0.288"/>
	</g>
</g>
<g id="Calque_3">
	
		<line fill="none" stroke="#FF0000" stroke-width="5" stroke-linecap="round" stroke-linejoin="round" stroke-miterlimit="10" x1="44.269" y1="82.909" x2="82.026" y2="44.907"/>
</g>
</svg>
