<?xml version="1.0" encoding="utf-8"?>
<!-- Generator: Adobe Illustrator 16.0.0, SVG Export Plug-In . SVG Version: 6.00 Build 0)  -->
<!DOCTYPE svg PUBLIC "-//W3C//DTD SVG 1.1//EN" "http://www.w3.org/Graphics/SVG/1.1/DTD/svg11.dtd">
<svg version="1.1" id="Calque_1" xmlns="http://www.w3.org/2000/svg" xmlns:xlink="http://www.w3.org/1999/xlink" x="0px" y="0px"
	 width="128px" height="128px" viewBox="0 0 128 128" enable-background="new 0 0 128 128" xml:space="preserve">
<path fill="none" stroke="#FF0000" stroke-width="5.946" stroke-miterlimit="10" d="M13.5,71.5
	c-2.351,3.097-5.228,9.834-5.228,14.022c0,10.189,8.26,18.45,18.45,18.45c3.371,0,6.53-0.904,9.249-2.485
	c3.429,7.768,11.199,13.19,20.235,13.19c6.927,0,13.106-3.188,17.163-8.171c3.678,3.857,8.867,6.263,14.621,6.263
	c10.77,0,19.568-8.431,20.164-19.048c9.613-1.367,16.953-8.704,16.953-17.552c0-8.836-7.324-16.167-16.92-17.545
	c0-0.079,0-0.155,0-0.233c0-11.157-9.041-20.199-20.197-20.199c-4.941,0-13.98,4.361-17.49,7.308"/>
<ellipse fill="none" stroke="#FF0000" stroke-width="5" stroke-miterlimit="10" cx="11.272" cy="113.427" rx="5.417" ry="3.797"/>
<path fill="#FF0000" d="M71.485,5.8H9.236c-1.657,0-3,1.345-3,3v62.25c0,1.657,1.343,3,3,3h62.249c1.658,0,3-1.343,3-3V8.8
	C74.485,7.145,73.144,5.8,71.485,5.8z M21.466,59.372c-2.769,0-5.013-2.242-5.013-5.011c0-2.768,2.244-5.01,5.013-5.01
	c2.766,0,5.01,2.242,5.01,5.01C26.476,57.13,24.231,59.372,21.466,59.372z M21.466,44.135c-2.769,0-5.013-2.242-5.013-5.01
	c0-2.77,2.244-5.012,5.013-5.012c2.766,0,5.01,2.244,5.01,5.012S24.231,44.135,21.466,44.135z M21.466,28.898
	c-2.769,0-5.013-2.244-5.013-5.01c0-2.769,2.244-5.013,5.013-5.013c2.766,0,5.01,2.244,5.01,5.013
	C26.476,26.654,24.231,28.898,21.466,28.898z M60.091,58.521H36.364c-2.305,0-4.174-1.869-4.174-4.176s1.869-4.177,4.174-4.177
	h23.729c2.306,0,4.174,1.87,4.174,4.177C64.267,56.65,62.397,58.521,60.091,58.521z M60.091,43.281H36.364
	c-2.305,0-4.174-1.868-4.174-4.176c0-2.306,1.869-4.176,4.174-4.176h23.729c2.306,0,4.174,1.87,4.174,4.176
	C64.265,41.413,62.397,43.281,60.091,43.281z M60.091,28.044H36.364c-2.305,0-4.174-1.869-4.174-4.175
	c0-2.307,1.869-4.176,4.174-4.176h23.729c2.306,0,4.174,1.869,4.174,4.176C64.267,26.175,62.397,28.044,60.091,28.044z"/>
</svg>
