<?xml version="1.0" encoding="utf-8"?>
<!-- Generator: Adobe Illustrator 16.0.0, SVG Export Plug-In . SVG Version: 6.00 Build 0)  -->
<!DOCTYPE svg PUBLIC "-//W3C//DTD SVG 1.1//EN" "http://www.w3.org/Graphics/SVG/1.1/DTD/svg11.dtd">
<svg version="1.1" id="Calque_1" xmlns="http://www.w3.org/2000/svg" xmlns:xlink="http://www.w3.org/1999/xlink" x="0px" y="0px"
	 width="128px" height="128px" viewBox="0 0 128 128" enable-background="new 0 0 128 128" xml:space="preserve">
<path fill="none" stroke="#FF0000" stroke-width="4.5634" stroke-miterlimit="10" d="M103.407,59.533H44.001
	c-4.934,0-8.933,4-8.933,8.934v29.836c0,4.934,3.999,8.934,8.933,8.934h6.68L60.471,126l12.359-18.764h30.577
	c4.935,0,8.935-4,8.935-8.934V68.467C112.342,63.533,108.342,59.533,103.407,59.533z"/>
<circle fill="none" stroke="#FF0000" stroke-width="4.5634" stroke-miterlimit="10" cx="53.655" cy="81.826" r="5.234"/>
<circle fill="none" stroke="#FF0000" stroke-width="4.5634" stroke-miterlimit="10" cx="73.704" cy="81.826" r="5.234"/>
<circle fill="none" stroke="#FF0000" stroke-width="4.5634" stroke-miterlimit="10" cx="93.755" cy="81.826" r="5.234"/>
<path fill="#F5F5F5" stroke="#FF0000" stroke-width="4.5634" stroke-miterlimit="10" d="M89.372,68.197
	c0,1.008-0.817,1.825-1.825,1.825h-8.519c-1.008,0-1.825-0.817-1.825-1.825V44.62c0-1.008,0.817-1.826,1.825-1.826h8.519
	c1.008,0,1.825,0.818,1.825,1.826V68.197z"/>
<path fill="#F5F5F5" stroke="#FF0000" stroke-width="4.5634" stroke-linecap="round" stroke-linejoin="round" stroke-miterlimit="10" d="
	M105.495,44.164h13.539c0,0,3.498-0.304,3.498,3.347s-3.347,3.499-3.347,3.499h-5.172h8.519c0,0,1.369,0.608,1.369,2.738
	s-1.978,3.347-2.435,3.347c-0.456,0-7.604,0-7.604,0h7.148c0,0,2.13,0.304,2.13,3.499s-2.434,2.585-2.434,2.585l-1.369,0.008
	l-7.093,0.039l7.629,0.091c0,0,1.774,0.43,1.774,3.381c0,2.952-2.091,3.269-3.661,3.269s-12.492,0-12.492,0
	s-8.062,0.134-10.039-1.082c-1.978-1.217-2.967-2.282-3.955-2.435s-2.129-0.075-2.129-0.075v-20.46c0,0,12.397-2.89,13.234-15.744
	c0,0-0.381-3.575,2.51-4.031c2.89-0.456,4.716,3.043,4.563,6.313C109.526,35.721,105.571,41.882,105.495,44.164z"/>
<path fill="#FF0000" d="M67.922,3.042H5.673c-1.657,0-3,1.345-3,3v62.25c0,1.657,1.343,3,3,3h62.249c1.658,0,3-1.343,3-3V6.042
	C70.922,4.387,69.58,3.042,67.922,3.042z M17.903,56.614c-2.769,0-5.013-2.242-5.013-5.011c0-2.768,2.244-5.01,5.013-5.01
	c2.766,0,5.01,2.242,5.01,5.01C22.913,54.372,20.668,56.614,17.903,56.614z M17.903,41.377c-2.769,0-5.013-2.242-5.013-5.01
	c0-2.77,2.244-5.012,5.013-5.012c2.766,0,5.01,2.244,5.01,5.012S20.668,41.377,17.903,41.377z M17.903,26.141
	c-2.769,0-5.013-2.244-5.013-5.01c0-2.769,2.244-5.013,5.013-5.013c2.766,0,5.01,2.244,5.01,5.013
	C22.913,23.896,20.668,26.141,17.903,26.141z M56.528,55.764H32.801c-2.305,0-4.174-1.869-4.174-4.176s1.869-4.177,4.174-4.177
	H56.53c2.306,0,4.174,1.87,4.174,4.177C60.704,53.893,58.834,55.764,56.528,55.764z M56.528,40.523H32.801
	c-2.305,0-4.174-1.868-4.174-4.176c0-2.306,1.869-4.176,4.174-4.176H56.53c2.306,0,4.174,1.87,4.174,4.176
	C60.702,38.655,58.834,40.523,56.528,40.523z M56.528,25.286H32.801c-2.305,0-4.174-1.869-4.174-4.175
	c0-2.307,1.869-4.176,4.174-4.176H56.53c2.306,0,4.174,1.869,4.174,4.176C60.704,23.417,58.834,25.286,56.528,25.286z"/>
</svg>
