<?xml version="1.0" encoding="utf-8"?>
<!-- Generator: Adobe Illustrator 16.0.0, SVG Export Plug-In . SVG Version: 6.00 Build 0)  -->
<!DOCTYPE svg PUBLIC "-//W3C//DTD SVG 1.1//EN" "http://www.w3.org/Graphics/SVG/1.1/DTD/svg11.dtd">
<svg version="1.1" id="Calque_1" xmlns="http://www.w3.org/2000/svg" xmlns:xlink="http://www.w3.org/1999/xlink" x="0px" y="0px"
	 width="128px" height="128px" viewBox="0 0 128 128" enable-background="new 0 0 128 128" xml:space="preserve">
<g>
	<path fill="#FF0000" d="M91.523,8.337c0,2.392-1.941,4.332-4.332,4.332H10.383c-2.392,0-4.332-1.939-4.332-4.332V6.894
		c0-2.392,1.939-4.332,4.332-4.332h76.809c2.391,0,4.332,1.939,4.332,4.332V8.337z"/>
	<path fill="#FF0000" d="M91.523,122.107c0,2.391-1.941,4.33-4.332,4.33H10.383c-2.392,0-4.332-1.939-4.332-4.33v-1.445
		c0-2.393,1.939-4.33,4.332-4.33h76.809c2.391,0,4.332,1.938,4.332,4.33V122.107z"/>
	<path fill="none" stroke="#FF0000" stroke-width="5" stroke-miterlimit="10" d="M16.735,7.615v22.956
		c0,0-0.289,12.705,19.347,26.564c0,0,5.775,2.89,5.775,7.508c0,0,1.154,2.599-5.775,6.931c-6.93,4.331-19.347,16.459-19.347,26.854
		c0,10.396,0,22.957,0,22.957"/>
	<path fill="none" stroke="#FF0000" stroke-width="2.1657" stroke-miterlimit="10" d="M81.738,106.797c0,7.758,0,14.588,0,14.588"/>
	<path fill="none" stroke="#FF0000" stroke-width="5" stroke-miterlimit="10" d="M81.738,7.615v22.956
		c0,0,0.289,12.705-19.346,26.564c0,0-5.776,2.89-5.776,7.508c0,0-1.154,2.599,5.776,6.931c3.897,2.437,9.531,7.34,13.715,13.014"/>
	<path fill="#FF0000" d="M48.788,58.1c0,0,0-3.994,8.382-8.422c8.382-4.428,8.626-8.423,8.626-8.423H31.962
		c0,0-0.063,4.442,8.319,8.423C48.663,53.659,48.788,58.1,48.788,58.1z"/>
	<path fill="#FF0000" d="M48.788,73.035c0,0-4.254,6.238-8.507,8.717C22.005,92.41,26.91,111.785,26.91,111.785h45.746
		c0,0,5.439-17.688-15.486-30.428C50.77,77.459,48.788,73.035,48.788,73.035z"/>
</g>
<g id="Calque_2">
	<g>
		<path fill="#FF0000" d="M96.258,105.98c-0.665-0.664-0.996-1.5-0.996-2.51V94.26h-9.213c-1.01,0-1.847-0.345-2.51-1.031
			c-0.664-0.687-0.996-1.535-0.996-2.545c0-1.007,0.332-1.845,0.996-2.509c0.663-0.664,1.5-0.997,2.51-0.997h9.211v-9.213
			c0-0.961,0.354-1.787,1.065-2.475c0.711-0.688,1.524-1.031,2.442-1.031c1.006,0,1.844,0.334,2.508,0.998s0.996,1.5,0.996,2.508
			v9.211h9.211c0.965,0,1.799,0.346,2.511,1.032c0.71,0.687,1.065,1.537,1.065,2.544c0,0.963-0.354,1.789-1.065,2.475
			c-0.711,0.688-1.546,1.031-2.511,1.031h-9.211v9.213c0,1.008-0.332,1.844-0.996,2.508s-1.502,0.996-2.508,0.996
			C97.759,106.977,96.92,106.646,96.258,105.98z"/>
	</g>
	<path fill="none" stroke="#FF0000" stroke-width="5" stroke-miterlimit="10" d="M98.73,67.322
		c12.922,0,23.396,10.475,23.396,23.396s-10.477,23.396-23.396,23.396c-6.693,0-12.731-2.813-16.996-7.317
		c-3.967-4.191-6.399-9.852-6.399-16.079c0-2.106,0.278-4.147,0.802-6.09C78.816,74.659,87.917,67.322,98.73,67.322z"/>
</g>
</svg>
