<?xml version="1.0" encoding="utf-8"?>
<!-- Generator: Adobe Illustrator 16.0.0, SVG Export Plug-In . SVG Version: 6.00 Build 0)  -->
<!DOCTYPE svg PUBLIC "-//W3C//DTD SVG 1.1//EN" "http://www.w3.org/Graphics/SVG/1.1/DTD/svg11.dtd">
<svg version="1.1" xmlns="http://www.w3.org/2000/svg" xmlns:xlink="http://www.w3.org/1999/xlink" x="0px" y="0px" width="128px"
	 height="128px" viewBox="0 0 128 128" enable-background="new 0 0 128 128" xml:space="preserve">
<g id="Calque_1">
	<path fill="none" stroke="#FF0000" stroke-width="5" stroke-miterlimit="10" d="M123.537,72.088
		c0,7.407-6.005,13.412-13.412,13.412h-91.42c-7.407,0-13.412-6.005-13.412-13.412V50.254c0-7.407,6.004-13.412,13.412-13.412h91.42
		c7.407,0,13.412,6.004,13.412,13.412V72.088z"/>
</g>
<g id="Calque_3">
	<path fill="none" stroke="#FF0000" stroke-width="5" stroke-miterlimit="10" d="M112.509,61.713c0,5.854-4.745,10.6-10.6,10.6l0,0
		c-5.855,0-10.601-4.746-10.601-10.6l0,0c0-5.855,4.745-10.601,10.601-10.601l0,0C107.764,51.112,112.509,55.858,112.509,61.713
		L112.509,61.713z"/>
</g>
<g id="Calque_2">
	<text transform="matrix(1 0 0 1 19.1924 68.957)" fill="#FF0000" font-family="'Verdana-Bold'" font-size="20.6031">TAGS</text>
</g>
</svg>
