<?xml version="1.0" encoding="utf-8"?>
<!-- Generator: Adobe Illustrator 16.0.0, SVG Export Plug-In . SVG Version: 6.00 Build 0)  -->
<!DOCTYPE svg PUBLIC "-//W3C//DTD SVG 1.1//EN" "http://www.w3.org/Graphics/SVG/1.1/DTD/svg11.dtd">
<svg version="1.1" id="Calque_1" xmlns="http://www.w3.org/2000/svg" xmlns:xlink="http://www.w3.org/1999/xlink" x="0px" y="0px"
	 width="128px" height="128px" viewBox="0 0 128 128" enable-background="new 0 0 128 128" xml:space="preserve">
<g>
	<path fill="none" stroke="#FF0000" stroke-width="5" stroke-linecap="round" stroke-linejoin="round" stroke-miterlimit="10" d="
		M111.266,19.58c-8.817-8.84-18.897-12.953-22.553-9.383c-0.342,0.344-0.593,0.762-0.8,1.213l-0.228-0.212l-4.547,4.595
		c0,0,0.979,5.65,4.788,12.138c-0.735-0.861-1.108-1.351-1.108-1.351L61.321,48.158c-2.894-0.735-14.628-3.1-24.145,4.619
		c0,0-5.426,6.694,8.273,23.073l-29.077,29.004L6.157,119.086l13.846-9.455l29.672-29.104c2.823,2.674,20.817,19.129,28.111,11.445
		c0,0,8.623-11.203,3.438-24.375c-0.109-0.24-0.193-0.519-0.277-0.781l21.334-24.193c3.57,2.099,7.791,3.882,12.713,5.054l5.4-5.481
		c0.045-0.042,0.103-0.071,0.146-0.115c0.051-0.05,0.084-0.115,0.133-0.167l0.025-0.026l-0.003-0.003
		C124.027,38.128,119.878,28.222,111.266,19.58z"/>
</g>
</svg>
