<?xml version="1.0" encoding="utf-8"?>
<!-- Generator: Adobe Illustrator 16.0.0, SVG Export Plug-In . SVG Version: 6.00 Build 0)  -->
<!DOCTYPE svg PUBLIC "-//W3C//DTD SVG 1.1//EN" "http://www.w3.org/Graphics/SVG/1.1/DTD/svg11.dtd">
<svg version="1.1" id="Calque_3" xmlns="http://www.w3.org/2000/svg" xmlns:xlink="http://www.w3.org/1999/xlink" x="0px" y="0px"
	 width="128px" height="128px" viewBox="0 0 128 128" enable-background="new 0 0 128 128" xml:space="preserve">
<path fill="none" stroke="#FF0000" stroke-width="5" stroke-miterlimit="10" d="M5.761,74.485L5.76,52.075h12.957l-0.003-12.42
	c0,0-0.297-4.733,2.938-5.522c2.162-0.527,3.352,0.79,4.348,1.785l25.321,25.321c0.995,0.996,0.996,2.61,0,3.606L25.665,90.503
	c-0.996,0.995-3.48,2.488-5.528,0.935c-1.513-1.187-1.417-3.313-1.417-3.313l-0.001-13.638L5.761,74.485z"/>
<path fill="none" stroke="#FF0000" stroke-width="5" stroke-miterlimit="10" d="M122.128,51.723v22.411h-12.957l0.004,12.42
	c0,0,0.297,4.733-2.938,5.521c-2.162,0.527-3.354-0.789-4.35-1.784l-25.32-25.322c-0.994-0.996-0.996-2.61,0-3.607l25.655-25.656
	c0.997-0.995,3.48-2.488,5.529-0.935c1.512,1.187,1.417,3.314,1.417,3.314v13.636L122.128,51.723z"/>
</svg>
