<?xml version="1.0" encoding="utf-8"?>
<!-- Generator: Adobe Illustrator 16.0.0, SVG Export Plug-In . SVG Version: 6.00 Build 0)  -->
<!DOCTYPE svg PUBLIC "-//W3C//DTD SVG 1.1//EN" "http://www.w3.org/Graphics/SVG/1.1/DTD/svg11.dtd">
<svg version="1.1" id="Calque_1" xmlns="http://www.w3.org/2000/svg" xmlns:xlink="http://www.w3.org/1999/xlink" x="0px" y="0px"
	 width="128px" height="128px" viewBox="0 0 128 128" enable-background="new 0 0 128 128" xml:space="preserve">
<path fill="#FF0000" d="M68.249,3H6C4.343,3,3,4.345,3,6v62.25c0,1.657,1.343,3,3,3h62.249c1.658,0,3-1.343,3-3V6
	C71.249,4.345,69.907,3,68.249,3z M18.229,56.572c-2.769,0-5.013-2.242-5.013-5.011c0-2.768,2.244-5.01,5.013-5.01
	c2.766,0,5.01,2.242,5.01,5.01C23.239,54.33,20.995,56.572,18.229,56.572z M18.229,41.335c-2.769,0-5.013-2.242-5.013-5.01
	c0-2.77,2.244-5.012,5.013-5.012c2.766,0,5.01,2.244,5.01,5.012C23.239,39.093,20.995,41.335,18.229,41.335z M18.229,26.099
	c-2.769,0-5.013-2.244-5.013-5.01c0-2.769,2.244-5.013,5.013-5.013c2.766,0,5.01,2.244,5.01,5.013
	C23.239,23.854,20.995,26.099,18.229,26.099z M56.854,55.722H33.128c-2.305,0-4.174-1.869-4.174-4.176
	c0-2.307,1.869-4.177,4.174-4.177h23.729c2.306,0,4.174,1.87,4.174,4.177C61.03,53.851,59.161,55.722,56.854,55.722z M56.854,40.481
	H33.128c-2.305,0-4.174-1.868-4.174-4.176c0-2.306,1.869-4.176,4.174-4.176h23.729c2.306,0,4.174,1.87,4.174,4.176
	C61.028,38.613,59.161,40.481,56.854,40.481z M56.854,25.244H33.128c-2.305,0-4.174-1.869-4.174-4.175
	c0-2.307,1.869-4.176,4.174-4.176h23.729c2.306,0,4.174,1.869,4.174,4.176C61.03,23.375,59.161,25.244,56.854,25.244z"/>
<g id="Calque_2">
	<g>
		
			<path fill="none" stroke="#FF0000" stroke-width="4.2308" stroke-linecap="round" stroke-linejoin="round" stroke-miterlimit="10" d="
			M74.456,58.546l-0.229-1.165c-0.225-1.138-0.34-2.3-0.34-3.453c0-4.671,1.819-9.061,5.121-12.358l13.142-13.145
			c3.305-3.306,7.702-5.127,12.381-5.13c4.678,0.003,9.076,1.824,12.382,5.13c3.305,3.298,5.123,7.692,5.123,12.374
			c0,4.672-1.818,9.074-5.123,12.389l-13.15,13.131c-3.297,3.302-7.693,5.12-12.368,5.127c-1.159-0.007-2.325-0.12-3.473-0.335
			l-1.17-0.223"/>
		
			<path fill="none" stroke="#FF0000" stroke-width="4.2308" stroke-linecap="round" stroke-linejoin="round" stroke-miterlimit="10" d="
			M70.118,87.536l0.234,1.174c0.233,1.151,0.348,2.311,0.348,3.441c-0.007,4.675-1.831,9.066-5.14,12.37l-13.138,13.15
			c-3.307,3.294-7.705,5.114-12.383,5.122c-4.663-0.008-9.06-1.829-12.369-5.131c-3.309-3.3-5.123-7.7-5.136-12.377
			c0.013-4.68,1.827-9.073,5.136-12.382l13.137-13.139c3.31-3.308,7.705-5.128,12.37-5.128c1.171,0,2.316,0.11,3.405,0.341
			l1.164,0.244"/>
	</g>
</g>
<g id="Calque_3">
	
		<line fill="none" stroke="#FF0000" stroke-width="4.2308" stroke-linecap="round" stroke-linejoin="round" stroke-miterlimit="10" x1="56.232" y1="89.045" x2="88.181" y2="56.889"/>
</g>
</svg>
