<?xml version="1.0" encoding="utf-8"?>
<!-- Generator: Adobe Illustrator 16.0.0, SVG Export Plug-In . SVG Version: 6.00 Build 0)  -->
<!DOCTYPE svg PUBLIC "-//W3C//DTD SVG 1.1//EN" "http://www.w3.org/Graphics/SVG/1.1/DTD/svg11.dtd">
<svg version="1.1" id="Calque_1" xmlns="http://www.w3.org/2000/svg" xmlns:xlink="http://www.w3.org/1999/xlink" x="0px" y="0px"
	 width="128px" height="128px" viewBox="0 0 128 128" enable-background="new 0 0 128 128" xml:space="preserve">
<path fill="#FF0000" d="M105.023,8.337c0,2.392-1.941,4.332-4.332,4.332H23.883c-2.392,0-4.332-1.939-4.332-4.332V6.894
	c0-2.392,1.939-4.332,4.332-4.332h76.808c2.391,0,4.332,1.939,4.332,4.332V8.337z"/>
<path fill="#FF0000" d="M105.023,122.107c0,2.391-1.941,4.33-4.332,4.33H23.883c-2.392,0-4.332-1.939-4.332-4.33v-1.445
	c0-2.393,1.939-4.33,4.332-4.33h76.808c2.391,0,4.332,1.938,4.332,4.33V122.107z"/>
<path fill="none" stroke="#FF0000" stroke-width="5" stroke-miterlimit="10" d="M30.235,7.615v22.956
	c0,0-0.289,12.705,19.347,26.564c0,0,5.775,2.89,5.775,7.508c0,0,1.154,2.598-5.775,6.93c-6.93,4.332-19.347,16.459-19.347,26.854
	c0,10.396,0,22.957,0,22.957"/>
<path fill="none" stroke="#FF0000" stroke-width="5" stroke-miterlimit="10" d="M95.238,7.615v22.956
	c0,0,0.289,12.705-19.348,26.564c0,0-5.774,2.89-5.774,7.508c0,0-1.154,2.598,5.774,6.93c6.931,4.332,19.348,16.459,19.348,26.854
	c0,10.396,0,22.957,0,22.957"/>
<path fill="#FF0000" d="M62.288,58.1c0,0,0-3.994,8.382-8.422c8.383-4.428,8.627-8.423,8.627-8.423H45.462
	c0,0-0.063,4.442,8.319,8.423C62.163,53.659,62.288,58.1,62.288,58.1z"/>
<path fill="#FF0000" d="M62.288,73.035c0,0-4.254,6.238-8.507,8.717C35.505,92.41,40.41,111.785,40.41,111.785h45.746
	c0,0,5.439-17.688-15.486-30.428C64.27,77.459,62.288,73.035,62.288,73.035z"/>
</svg>
