<?xml version="1.0" encoding="utf-8"?>
<!-- Generator: Adobe Illustrator 16.0.0, SVG Export Plug-In . SVG Version: 6.00 Build 0)  -->
<!DOCTYPE svg PUBLIC "-//W3C//DTD SVG 1.1//EN" "http://www.w3.org/Graphics/SVG/1.1/DTD/svg11.dtd">
<svg version="1.1" id="Calque_1" xmlns="http://www.w3.org/2000/svg" xmlns:xlink="http://www.w3.org/1999/xlink" x="0px" y="0px"
	 width="128px" height="128px" viewBox="0 0 128 128" enable-background="new 0 0 128 128" xml:space="preserve">
<path fill="none" stroke="#FF0000" stroke-width="5" stroke-linecap="round" stroke-linejoin="round" stroke-miterlimit="10" d="
	M98.319,57.105c0,4.131-1.029,7.95-2.771,11.043c-2.605,4.627-6.809,9.694-11.546,9.694c-4.662,0-8.803-4.972-11.416-9.471
	c-1.82-3.132-2.9-7.035-2.9-11.268c0-10.313,6.409-18.673,14.316-18.673C91.909,38.432,98.319,46.792,98.319,57.105z"/>
<path fill="none" stroke="#FF0000" stroke-width="5" stroke-linecap="round" stroke-linejoin="round" stroke-miterlimit="10" d="
	M84.76,123.845c-32.611,0-35.565-6.243-35.565-6.243s-3.987-23.761,21.404-30.398c0,0,4.095,6.943,14.078,6.943h0.084
	c9.982,0,14.078-6.943,14.078-6.943c25.391,6.639,21.404,30.398,21.404,30.398S117.37,123.845,84.76,123.845z"/>
<line id="line16" fill="none" stroke="#FF0000" stroke-width="3.9991" stroke-linecap="round" stroke-linejoin="round" stroke-miterlimit="10" x1="11.35" y1="72.236" x2="11.35" y2="25.306"/>
<line id="line18" fill="none" stroke="#FF0000" stroke-width="2.7444" stroke-linecap="round" stroke-linejoin="round" stroke-miterlimit="10" x1="11.754" y1="24.036" x2="24.313" y2="24.036"/>
<path id="path22-1" fill="none" stroke="#FF0000" stroke-width="3.9991" stroke-linecap="round" stroke-linejoin="round" stroke-miterlimit="10" d="
	M25.978,38.637c0,0.137,0.492,0.248,1.099,0.248h27.476c0.607,0,1.1-0.111,1.1-0.248V11.469c0-0.137-0.493-0.248-1.1-0.248H27.077
	c-0.607,0-1.099,0.111-1.099,0.248V38.637z"/>
<path id="path22-3" fill="none" stroke="#FF0000" stroke-width="3.9991" stroke-linecap="round" stroke-linejoin="round" stroke-miterlimit="10" d="
	M26.256,85.158c0,0.138,0.493,0.249,1.1,0.249h27.476c0.607,0,1.1-0.111,1.1-0.249V57.991c0-0.137-0.493-0.248-1.1-0.248H27.355
	c-0.606,0-1.1,0.111-1.1,0.248V85.158z"/>
<line id="line18-4" fill="none" stroke="#FF0000" stroke-width="3.9991" stroke-linecap="round" stroke-linejoin="round" stroke-miterlimit="10" x1="11.754" y1="72.271" x2="25.854" y2="72.271"/>
</svg>
