<?xml version="1.0" encoding="utf-8"?>
<!-- Generator: Adobe Illustrator 16.0.0, SVG Export Plug-In . SVG Version: 6.00 Build 0)  -->
<!DOCTYPE svg PUBLIC "-//W3C//DTD SVG 1.1//EN" "http://www.w3.org/Graphics/SVG/1.1/DTD/svg11.dtd">
<svg version="1.1" id="Calque_1" xmlns="http://www.w3.org/2000/svg" xmlns:xlink="http://www.w3.org/1999/xlink" x="0px" y="0px"
	 width="128px" height="128px" viewBox="0 0 128 128" enable-background="new 0 0 128 128" xml:space="preserve">
<g id="Calque_1_1_" display="none">
</g>
<g id="Calque_2" display="none">
	
		<polyline display="inline" fill="none" stroke="#FF0000" stroke-width="5" stroke-linecap="round" stroke-linejoin="round" stroke-miterlimit="10" points="
		-15.692,71.884 -1.538,71.884 8.923,54.038 27.539,99.884 47.385,40.5 58.154,70.191 79.077,70.191 	"/>
	
		<circle display="inline" fill="none" stroke="#FF0000" stroke-width="5" stroke-linecap="round" stroke-linejoin="round" stroke-miterlimit="10" cx="89.385" cy="69.884" r="10.308"/>
	<g display="inline">
		<path fill="none" stroke="#FF0000" stroke-width="5" stroke-linecap="round" stroke-linejoin="round" stroke-miterlimit="10" d="
			M89.385,34.5V17c0-1.657-1.343-3-3-3H72"/>
		<path fill="none" stroke="#FF0000" stroke-width="5" stroke-linecap="round" stroke-linejoin="round" stroke-miterlimit="10" d="
			M12,14H-1.5c-1.657,0-3,1.343-3,3v17.5"/>
		<path fill="none" stroke="#FF0000" stroke-width="5" stroke-linecap="round" stroke-linejoin="round" stroke-miterlimit="10" d="
			M72,115h14.385c1.657,0,3-1.343,3-3V94.5"/>
		<path fill="none" stroke="#FF0000" stroke-width="5" stroke-linecap="round" stroke-linejoin="round" stroke-miterlimit="10" d="
			M-4.5,94.5V112c0,1.657,1.343,3,3,3H12"/>
	</g>
</g>
<g>
	<path fill="none" stroke="#FF0000" stroke-width="5" stroke-linecap="round" stroke-linejoin="round" stroke-miterlimit="10" d="
		M76.295,41.035H22.958c-9.303,0-16.912,7.611-16.912,16.914v7.93c0,9.301,7.609,16.912,16.912,16.912h5.964l20.554,35.6
		c1.566,2.717,5.071,3.653,7.785,2.088l10.309-5.953c2.715-1.567,3.654-5.07,2.086-7.787L55.83,82.791h20.465"/>
	<path fill="none" stroke="#FF0000" stroke-width="5" stroke-linecap="round" stroke-linejoin="round" stroke-miterlimit="10" d="
		M110.467,49.31L110.467,49.31c5.526,0,10.049,3.607,10.049,8.019v9.233c0,4.41-4.521,8.019-10.049,8.019l0,0"/>
	
		<polygon fill="none" stroke="#FF0000" stroke-width="5" stroke-linecap="round" stroke-linejoin="round" stroke-miterlimit="10" points="
		76.295,87.825 76.295,35.602 110.467,11.859 110.467,110.254 	"/>
</g>
</svg>
