<?xml version="1.0" encoding="utf-8"?>
<!-- Generator: Adobe Illustrator 16.0.0, SVG Export Plug-In . SVG Version: 6.00 Build 0)  -->
<!DOCTYPE svg PUBLIC "-//W3C//DTD SVG 1.1//EN" "http://www.w3.org/Graphics/SVG/1.1/DTD/svg11.dtd">
<svg version="1.1" id="Calque_1" xmlns="http://www.w3.org/2000/svg" xmlns:xlink="http://www.w3.org/1999/xlink" x="0px" y="0px"
	 width="128px" height="128px" viewBox="0 0 128 128" enable-background="new 0 0 128 128" xml:space="preserve">
<g id="Calque_1_-_copie" display="none">
	<path display="inline" fill="none" stroke="#E52620" stroke-width="7.7245" stroke-miterlimit="10" d="M103.447,79.667h19.172
		c1.121,0,2.025-0.911,2.025-2.028v-18c0-1.12-0.904-2.029-2.025-2.029h-7.462c-2.183-16.036-4.032-24.326-13.72-34L83.574,43.538
		l3.979-33.972c-6.85-4.312-14.566-5.543-22.74-5.543c-6.493,0-12.697,2.749-18.41,5.543l2.945,33.972L28.816,22.821
		c-10.96,9.678-11.986,17.451-14.344,34.788H7.008c-1.119,0-2.028,0.91-2.028,2.029v18c0,1.116,0.91,2.027,2.028,2.027h20.659"/>
	<g display="inline">
		
			<path fill="none" stroke="#E52620" stroke-width="4.5138" stroke-linecap="round" stroke-linejoin="round" stroke-miterlimit="10" d="
			M55.613,94.281l-4.71-4.844c0,0-8.992-2.824-10.463,6.104c-0.709,4.313,2.096,7.536-1.518,7.135
			c-3.614-0.401-6.643-9.271-4.133-14.39c2.509-5.121,4.717-7.729,4.617-8.434c-0.101-0.703-1.204-1.808-0.703-2.711
			c0.502-0.902,6.279-7.082,7.155-7.152c0.875-0.072,4.59,0.025,5.292-0.678c0.703-0.701,1.707-2.105,1.405-3.211
			c-0.301-1.104,4.417-6.021,5.22-5.622c0.803,0.401,9.135,8.129,8.934,8.933s-5.019,5.622-5.621,5.421s-3.513-0.302-3.713,3.913
			c-0.201,4.216,0.246,3.97,0.246,3.97l5.603,5.448"/>
		
			<path fill="none" stroke="#E52620" stroke-width="4.5138" stroke-linecap="round" stroke-linejoin="round" stroke-miterlimit="10" d="
			M75.797,100.398l14.9,14.49c0,0,3.715,2.508-0.701,6.926c-4.417,4.414-6.928,0.701-6.928,0.701l-14.652-15.068"/>
		<g>
			
				<path fill="none" stroke="#E52620" stroke-width="4.5138" stroke-linecap="round" stroke-linejoin="round" stroke-miterlimit="10" d="
				M59.419,111.803l21.713-21.714c3.877,1.019,8.175,0.009,11.214-3.028c3.496-3.496,4.307-8.664,2.43-12.934l-7.09,7.092
				c-0.994,0.992-2.621,0.992-3.615,0l-2.163-2.166c-0.994-0.994-0.994-2.621,0-3.615l7.163-7.164
				c-4.32-2.039-9.639-1.271-13.211,2.303c-3.036,3.038-4.047,7.336-3.028,11.212L51.119,103.5
				c-3.876-1.018-8.173-0.009-11.212,3.029c-3.497,3.496-4.308,8.662-2.431,12.934c0,0,0.815,1.784,2.508,3.479
				c1.694,1.69,3.198,2.379,3.198,2.379c4.32,2.035,9.638,1.27,13.21-2.301C59.428,119.977,60.436,115.68,59.419,111.803z"/>
			<circle fill="#E52620" cx="47.919" cy="115" r="5.568"/>
		</g>
	</g>
	<path display="inline" fill="#FFFFFF" d="M-8.597,200.887h-4.83c-1.413-10.38-2.61-15.746-8.88-22.008l-11.563,18.727l2.575-27.814
		c-4.434-2.791-9.429-3.588-14.72-3.588c-4.202,0-8.219,1.777-11.916,3.588l1.906,27.814l-13.29-19.234
		c-7.094,6.265-7.758,11.296-9.285,22.52h-4.832c-0.724,0-1.313,0.588-1.313,1.313v11.65c0,0.725,0.589,1.313,1.313,1.313h74.834
		c0.726,0,1.312-0.59,1.312-1.313V202.2C-7.285,201.477-7.871,200.887-8.597,200.887z"/>
	<g display="inline">
		
			<path fill="none" stroke="#FFFFFF" stroke-width="4.5138" stroke-linecap="round" stroke-linejoin="round" stroke-miterlimit="10" d="
			M-35.03,261.656l14.901,14.49c0,0,3.714,2.508-0.702,6.926c-4.417,4.414-6.927,0.701-6.927,0.701l-14.653-15.068l-12.803-13.166
			l-4.71-4.844c0,0-8.992-2.824-10.463,6.104c-0.709,4.313,2.096,7.537-1.518,7.137c-3.614-0.402-6.643-9.271-4.133-14.391
			c2.509-5.121,4.717-7.729,4.617-8.436c-0.1-0.703-1.204-1.807-0.703-2.709c0.502-0.902,6.279-7.082,7.155-7.152
			c0.875-0.071,4.59,0.025,5.292-0.678c0.703-0.701,1.707-2.105,1.405-3.211c-0.301-1.104,4.417-6.021,5.22-5.621
			c0.803,0.4,9.135,8.131,8.934,8.934c-0.201,0.807-5.019,5.623-5.621,5.423c-0.602-0.2-3.513-0.304-3.713,3.911
			c-0.201,4.219,0.246,3.973,0.246,3.973l5.603,5.445L-35.03,261.656z"/>
	</g>
</g>
<g id="Calque_3">
	<path fill="#FF0000" d="M105.785,110.217h-5.002c-1.463-10.746-2.702-16.304-9.192-22.787l-11.975,19.389l2.669-28.799
		c-4.592-2.891-9.764-3.715-15.242-3.715c-4.351,0-8.51,1.842-12.337,3.715l1.973,28.799L42.92,86.902
		c-7.346,6.486-8.034,11.695-9.614,23.313h-5.002c-0.75,0-1.36,0.609-1.36,1.36v12.063c0,0.747,0.61,1.358,1.36,1.358h77.481
		c0.752,0,1.357-0.611,1.357-1.358v-12.063C107.143,110.826,106.537,110.217,105.785,110.217z"/>
	<g>
		<path fill="#FF0000" d="M59.492,96.407c-1.045,0-2.02-0.661-2.37-1.707L42.339,50.546c-1.368-1.113-5.714-4.279-10.37-3.78
			c-3.032,0.323-5.773,2.203-8.147,5.588c-1.597,2.279-2.297,4.708-2.915,6.851c-0.723,2.507-1.405,4.875-3.632,5.729
			c-1.98,0.754-3.924-0.229-5.215-1.038c-2.602-1.63-4.169-5.06-4.415-9.659c-0.386-7.236,2.554-17.18,8.923-22.187
			c4.532-3.569,8.4-6.04,10.96-7.675c1.099-0.702,2.318-1.48,2.899-1.931c-0.006-0.178-0.016-0.406-0.023-0.583
			c-0.062-1.521-0.165-4.065,1.985-5.585c0.659-0.466,17-7.857,20.301-6.585c0.36,0.138,0.958,0.405,1.691,0.737
			c1.266,0.572,5.047,2.282,6.282,2.346c1.71-0.642,3.083-1.74,3.191-2.328c0.771-4.184,12.117-7.127,12.231-7.155
			c2.192-0.534,4.394-0.806,5.64,0.8c1.213,1.567,5.021,11.825,5.06,11.928c4.34,11.713,3.671,12.517,2.745,13.629
			c-1.68,2.026-12.479,5.465-15.098,5.608c-0.391,0.019-1.594,0.087-2.513-0.802c-0.14-0.109-1.015-0.6-2.049-0.387
			c-1.226,0.247-2.435,1.417-3.497,3.382c-1.716,3.171-2.318,4.65-2.528,5.271l16.256,44.398c0.476,1.297-0.19,2.731-1.487,3.207
			c-1.296,0.474-2.731-0.192-3.207-1.488L59.151,44.442c-0.843-1.368-0.617-3.012,2.824-9.373c2.369-4.378,5.257-5.662,7.263-5.968
			c2.273-0.349,4.185,0.393,5.332,1.123c2.115-0.311,8.061-2.381,10.471-3.523c-0.872-3.807-5.212-15.199-6.884-18.764
			c-2.476,0.405-8.159,2.693-9.497,3.891c-1.012,3.614-5.574,5.394-6.513,5.725c-1.982,0.694-4.749-0.274-9.826-2.57
			c-0.419-0.19-0.785-0.356-1.072-0.48c-2.576,0.346-13.762,4.611-15.833,5.773c-0.06,0.321-0.033,0.973-0.017,1.383
			c0.034,0.844,0.069,1.717-0.198,2.571c-0.469,1.475-1.791,2.319-4.983,4.358c-2.625,1.677-6.22,3.973-10.56,7.391
			c-4.977,3.912-7.332,12.189-7.022,17.99c0.15,2.8,0.945,4.979,2.075,5.688c0.287,0.179,0.511,0.3,0.681,0.381
			c0.232-0.562,0.5-1.49,0.709-2.218c0.653-2.268,1.549-5.374,3.625-8.336c3.25-4.634,7.203-7.222,11.751-7.694
			c7.891-0.816,14.446,5.226,14.721,5.483c0.303,0.283,0.53,0.638,0.662,1.031l15.002,44.807c0.438,1.311-0.268,2.728-1.577,3.166
			C60.023,96.365,59.755,96.407,59.492,96.407z"/>
	</g>
</g>
<g id="Calque_4" display="none">
	<polyline display="inline" fill="none" stroke="#E52420" stroke-width="5" stroke-miterlimit="10" points="40.013,43.122 
		22.269,51.332 22.269,105.889 64.643,125.75 107.016,106.152 107.016,50.802 89.008,43.122 	"/>
	<polyline display="inline" fill="none" stroke="#E52420" stroke-width="5" stroke-miterlimit="10" points="107.016,50.802 
		64.643,70.664 22.269,51.332 	"/>
	
		<line display="inline" fill="none" stroke="#E52420" stroke-width="5" stroke-miterlimit="10" x1="64.643" y1="70.664" x2="64.643" y2="125.75"/>
	
		<path display="inline" fill="none" stroke="#E52420" stroke-width="5" stroke-linecap="round" stroke-linejoin="round" stroke-miterlimit="10" d="
		M83.475,57.688V27.852c3.715-2.17,6.215-6.203,6.215-10.818c0-5.313-3.309-9.853-7.977-11.669v10.771
		c0,1.511-1.236,2.747-2.748,2.748l-3.287-0.001c-1.512,0.001-2.746-1.235-2.746-2.747V5.25c-4.832,1.733-8.289,6.356-8.289,11.783
		c0.002,4.616,2.5,8.646,6.217,10.818v35.397"/>
	
		<polyline display="inline" fill="none" stroke="#E52420" stroke-width="5" stroke-linecap="round" stroke-linejoin="round" stroke-miterlimit="10" points="
		48.936,58.187 49.604,28.716 48.027,22.902 49.594,13.192 57.933,13.191 59.75,21.985 57.941,28.599 57.673,62.189 	"/>
</g>
<g id="Calque_1_1_" display="none">
	<path display="inline" fill="#E52420" d="M106.545,41.903h-5.168c-1.512-11.105-2.793-16.848-9.501-23.548L79.502,38.391
		l2.757-29.762C77.516,5.643,72.169,4.79,66.508,4.79c-4.496,0-8.794,1.903-12.75,3.839l2.039,29.762L41.578,17.81
		c-7.591,6.703-8.302,12.086-9.935,24.093h-5.169c-0.775,0-1.405,0.631-1.405,1.405v12.467c0,0.774,0.63,1.406,1.405,1.406h80.07
		c0.776,0,1.403-0.632,1.403-1.406V43.308C107.947,42.534,107.32,41.903,106.545,41.903z"/>
	<g display="inline">
		<path fill="none" stroke="#E52420" stroke-width="5" stroke-linecap="round" stroke-linejoin="round" stroke-miterlimit="10" d="
			M79.352,97.18l25.396,6.4c0,0,5.632,0.393,3.604,7.996c-2.031,7.602-7.109,5.135-7.109,5.135l-25.49-7.186l-22.271-6.279
			l-8.194-2.311c0,0-11.588,2.594-7.557,13.26c1.948,5.154,7.041,6.897,2.847,8.74c-4.196,1.84-13.096-5.92-13.587-13.086
			c-0.496-7.168,0.266-11.406-0.286-12.111c-0.555-0.703-2.454-1.209-2.477-2.51c-0.022-1.305,2.378-11.688,3.29-12.318
			c0.908-0.631,5.022-2.865,5.345-4.076c0.321-1.209,0.53-3.375-0.495-4.387c-1.026-1.016,1.017-9.357,2.146-9.428
			c1.128-0.068,15.091,3.104,15.378,4.105c0.289,1.004-1.926,9.3-2.708,9.459c-0.784,0.16-4.023,1.889-1.582,6.607
			c2.441,4.729,2.774,4.178,2.774,4.178l9.548,2.402L79.352,97.18z"/>
	</g>
</g>
</svg>
