<?xml version="1.0" encoding="utf-8"?>
<!-- Generator: Adobe Illustrator 16.0.0, SVG Export Plug-In . SVG Version: 6.00 Build 0)  -->
<!DOCTYPE svg PUBLIC "-//W3C//DTD SVG 1.1//EN" "http://www.w3.org/Graphics/SVG/1.1/DTD/svg11.dtd">
<svg version="1.1" id="Calque_1" xmlns="http://www.w3.org/2000/svg" xmlns:xlink="http://www.w3.org/1999/xlink" x="0px" y="0px"
	 width="128px" height="128px" viewBox="0 0 128 128" enable-background="new 0 0 128 128" xml:space="preserve">
<path fill="none" stroke="#FF0000" stroke-width="5.946" stroke-miterlimit="10" d="M124.92,56.193
	c0-8.837-7.324-16.168-16.92-17.546c0-0.079,0.001-0.155,0.001-0.233c0-11.157-9.042-20.199-20.199-20.199
	c-4.94,0-9.465,1.775-12.976,4.721c-3.839-5.701-10.65-9.492-18.414-9.492c-9.704,0-17.918,5.92-20.702,14.087
	c-1.61-0.413-3.3-0.633-5.039-0.633c-11.156,0-20.199,9.043-20.199,20.197c0,2.577,0.483,5.04,1.361,7.304
	c-2.351,3.097-3.748,6.958-3.748,11.146c0,10.189,8.26,18.45,18.45,18.45c3.371,0,6.53-0.904,9.249-2.485
	C39.213,89.277,46.983,94.7,56.019,94.7c6.927,0,13.107-3.188,17.163-8.171c3.677,3.858,8.868,6.263,14.62,6.263
	c10.77,0,19.569-8.43,20.165-19.048C117.581,72.377,124.92,65.04,124.92,56.193z"/>
<ellipse fill="none" stroke="#FF0000" stroke-width="5" stroke-miterlimit="10" cx="32.069" cy="106.901" rx="8.292" ry="5.813"/>
<ellipse fill="none" stroke="#FF0000" stroke-width="5" stroke-miterlimit="10" cx="11.272" cy="113.427" rx="5.417" ry="3.797"/>
</svg>
