<?xml version="1.0" encoding="utf-8"?>
<!-- Generator: Adobe Illustrator 16.0.0, SVG Export Plug-In . SVG Version: 6.00 Build 0)  -->
<!DOCTYPE svg PUBLIC "-//W3C//DTD SVG 1.1//EN" "http://www.w3.org/Graphics/SVG/1.1/DTD/svg11.dtd">
<svg version="1.1" id="Calque_1" xmlns="http://www.w3.org/2000/svg" xmlns:xlink="http://www.w3.org/1999/xlink" x="0px" y="0px"
	 width="128px" height="128px" viewBox="0 0 128 128" enable-background="new 0 0 128 128" xml:space="preserve">
<path fill="#E52420" d="M101.716,54.817h-5.589V40.855c0-1.262-1.016-2.297-2.292-2.297H71.766v6.883h17.502v9.371h-5.869
	l-1.228,1.429l10.373,12.111l10.474-12.111L101.716,54.817L101.716,54.817z M73.211,70.237v14.564l5.271,5.166l12.75-12.47
	L78.509,65.019L73.211,70.237L73.211,70.237z"/>
<polygon fill="none" stroke="#E52420" stroke-width="5.4195" stroke-miterlimit="10" points="73.211,7.629 15.919,17.667 
	15.919,111.656 73.211,121.701 "/>
<path fill="#E52420" d="M38.831,62.549V50.241h3.229c0.921-0.053,1.852,0.037,2.747,0.283c0.741,0.193,1.424,0.574,1.99,1.088
	c0.561,0.532,0.979,1.188,1.217,1.908c0.286,0.879,0.423,1.8,0.413,2.731c0.005,0.918-0.138,1.823-0.413,2.678
	c-0.477,1.524-1.678,2.72-3.208,3.186c-0.889,0.283-1.82,0.413-2.747,0.392h-3.054 M43.419,43.136l-11.458,0.667v38.955l6.875,0.414
	V69.295h3.89c1.006,0.041,1.996-0.012,3.006-0.123c0.947-0.121,1.895-0.354,2.794-0.682c0.873-0.328,1.709-0.709,2.498-1.217
	c0.82-0.477,1.598-1.037,2.292-1.699c0.63-0.625,1.217-1.302,1.699-2.038c0.481-0.725,0.889-1.484,1.217-2.292
	c0.344-0.847,0.571-1.736,0.751-2.636c0.476-2.897,0.259-5.864-0.646-8.659c-0.54-1.529-1.45-2.905-2.63-3.99
	c-1.238-1.093-2.726-1.884-4.329-2.292C47.394,43.17,45.409,43.001,43.419,43.136"/>
<path fill="none" stroke="#E52420" stroke-width="5.4195" stroke-miterlimit="10" d="M73.211,110.243h34.374
	c2.53,0,4.584-2.059,4.584-4.6V23.666c0-2.532-2.054-4.586-4.584-4.586H73.211"/>
</svg>
