<?xml version="1.0" encoding="utf-8"?>
<!-- Generator: Adobe Illustrator 16.0.0, SVG Export Plug-In . SVG Version: 6.00 Build 0)  -->
<!DOCTYPE svg PUBLIC "-//W3C//DTD SVG 1.1//EN" "http://www.w3.org/Graphics/SVG/1.1/DTD/svg11.dtd">
<svg version="1.1" id="Calque_1" xmlns="http://www.w3.org/2000/svg" xmlns:xlink="http://www.w3.org/1999/xlink" x="0px" y="0px"
	 width="128px" height="128px" viewBox="0 0 128 128" enable-background="new 0 0 128 128" xml:space="preserve">
<g>
	
		<path fill="none" stroke="#FF0000" stroke-width="6.2742" stroke-linecap="round" stroke-linejoin="round" stroke-miterlimit="10" d="
		M75.338,43.678h30.461c6.448,0,11.723,5.273,11.723,11.721v57.511c0,6.445-5.271,11.724-11.723,11.724H10.541V75.821"/>
	
		<path fill="none" stroke="#FF0000" stroke-width="6.2742" stroke-linecap="round" stroke-linejoin="round" stroke-miterlimit="10" d="
		M117.521,100.15H98.083c-8.796,0-15.996-7.196-15.996-15.998l0,0c0-8.795,7.2-15.995,15.996-15.995h19.437"/>
	
		<circle fill="none" stroke="#FF0000" stroke-width="6.2742" stroke-linecap="round" stroke-linejoin="round" cx="95.932" cy="84.155" r="2.287"/>
</g>
<g>
	
		<line id="line18" fill="none" stroke="#FF0000" stroke-width="5" stroke-linecap="round" stroke-linejoin="round" stroke-miterlimit="10" x1="67.833" y1="17.164" x2="87.719" y2="17.164"/>
	
		<path id="path22-1" fill="none" stroke="#FF0000" stroke-width="5" stroke-linecap="round" stroke-linejoin="round" stroke-miterlimit="10" d="
		M89.526,33.017c0,0.148,0.534,0.269,1.193,0.269h29.832c0.659,0,1.194-0.121,1.194-0.269V3.519c0-0.149-0.535-0.269-1.194-0.269
		H90.72c-0.659,0-1.193,0.12-1.193,0.269V33.017z"/>
</g>
<path fill="#FF0000" d="M67.207,1.8H4.958c-1.657,0-3,1.344-3,3v62.25c0,1.657,1.343,3,3,3h62.249c1.658,0,3-1.343,3-3V4.8
	C70.207,3.144,68.865,1.8,67.207,1.8z M17.187,55.372c-2.768,0-5.012-2.242-5.012-5.01c0-2.769,2.244-5.011,5.012-5.011
	c2.766,0,5.01,2.242,5.01,5.011C22.197,53.13,19.953,55.372,17.187,55.372z M17.187,40.135c-2.768,0-5.012-2.243-5.012-5.01
	c0-2.769,2.244-5.011,5.012-5.011c2.766,0,5.01,2.243,5.01,5.011C22.197,37.892,19.953,40.135,17.187,40.135z M17.187,24.898
	c-2.768,0-5.012-2.244-5.012-5.01c0-2.768,2.244-5.012,5.012-5.012c2.766,0,5.01,2.244,5.01,5.012
	C22.197,22.654,19.953,24.898,17.187,24.898z M55.813,54.521H32.086c-2.305,0-4.174-1.869-4.174-4.176
	c0-2.306,1.869-4.176,4.174-4.176h23.729c2.305,0,4.174,1.87,4.174,4.176C59.989,52.651,58.119,54.521,55.813,54.521z
	 M55.813,39.282H32.086c-2.305,0-4.174-1.869-4.174-4.176c0-2.306,1.869-4.176,4.174-4.176h23.729c2.305,0,4.174,1.87,4.174,4.176
	C59.987,37.413,58.119,39.282,55.813,39.282z M55.813,24.044H32.086c-2.305,0-4.174-1.869-4.174-4.175
	c0-2.306,1.869-4.175,4.174-4.175h23.729c2.305,0,4.174,1.869,4.174,4.175C59.989,22.175,58.119,24.044,55.813,24.044z"/>
</svg>
