<?xml version="1.0" encoding="utf-8"?>
<!-- Generator: Adobe Illustrator 16.0.0, SVG Export Plug-In . SVG Version: 6.00 Build 0)  -->
<!DOCTYPE svg PUBLIC "-//W3C//DTD SVG 1.1//EN" "http://www.w3.org/Graphics/SVG/1.1/DTD/svg11.dtd">
<svg version="1.1" id="Calque_1" xmlns="http://www.w3.org/2000/svg" xmlns:xlink="http://www.w3.org/1999/xlink" x="0px" y="0px"
	 width="128px" height="128px" viewBox="0 0 128 128" enable-background="new 0 0 128 128" xml:space="preserve">
<g id="Calque_1_1_" display="none">
	
		<image display="inline" overflow="visible" enable-background="new    " width="540" height="540" xlink:href="E3767207.jpeg"  transform="matrix(0.2367 0 0 0.2349 0.1943 0.667)">
	</image>
</g>
<g>
	<g>
		<path fill="none" stroke="#FF0000" stroke-width="7" stroke-linecap="round" stroke-linejoin="round" stroke-miterlimit="10" d="
			M56.328,64.765c-7.031,0-12.726-5.694-12.726-12.719l0,0c0-7.028,5.694-12.719,12.726-12.719h18.513
			c7.023,0,12.721,5.691,12.721,12.719l0,0"/>
		<path fill="none" stroke="#FF0000" stroke-width="7" stroke-linecap="round" stroke-linejoin="round" stroke-miterlimit="10" d="
			M56.328,64.765h18.513c7.023,0,12.721,5.691,12.721,12.717l0,0c0,7.031-5.694,12.723-12.721,12.723H56.328
			c-7.031,0-12.726-5.691-12.726-12.723"/>
	</g>
	
		<line fill="none" stroke="#FF0000" stroke-width="7" stroke-linecap="round" stroke-linejoin="round" stroke-miterlimit="10" x1="65.58" y1="39.327" x2="65.58" y2="27.465"/>
	
		<line fill="none" stroke="#FF0000" stroke-width="7" stroke-linecap="round" stroke-linejoin="round" stroke-miterlimit="10" x1="65.58" y1="102.065" x2="65.58" y2="90.202"/>
</g>
<path fill="none" stroke="#FF0000" stroke-width="5" stroke-linecap="round" stroke-linejoin="round" stroke-miterlimit="10" d="
	M113.738,29.694c6.961,9.792,11.054,21.766,11.054,34.695c0,33.11-26.841,59.951-59.951,59.951
	c-18.886,0-35.732-8.732-46.722-22.381"/>
<path fill="none" stroke="#FF0000" stroke-width="5" stroke-linecap="round" stroke-linejoin="round" stroke-miterlimit="10" d="
	M11.651,92.075C7.332,83.793,4.89,74.376,4.89,64.389c0-33.11,26.841-59.951,59.951-59.951c15.594,0,29.797,5.954,40.46,15.712"/>
<polyline fill="none" stroke="#FF0000" stroke-width="5" stroke-linecap="round" stroke-linejoin="round" stroke-miterlimit="10" points="
	92.365,21.631 106.166,20.957 106.166,8.208 "/>
<polyline fill="none" stroke="#FF0000" stroke-width="5" stroke-linecap="round" stroke-linejoin="round" stroke-miterlimit="10" points="
	29.926,100.634 16.125,101.308 16.125,114.057 "/>
</svg>
