<?xml version="1.0" encoding="utf-8"?>
<!-- Generator: Adobe Illustrator 16.0.0, SVG Export Plug-In . SVG Version: 6.00 Build 0)  -->
<!DOCTYPE svg PUBLIC "-//W3C//DTD SVG 1.1//EN" "http://www.w3.org/Graphics/SVG/1.1/DTD/svg11.dtd">
<svg version="1.1" xmlns="http://www.w3.org/2000/svg" xmlns:xlink="http://www.w3.org/1999/xlink" x="0px" y="0px" width="128px"
	 height="128px" viewBox="0 0 128 128" enable-background="new 0 0 128 128" xml:space="preserve">
<g id="_x30_">
	
		<line fill="none" stroke="#FF0000" stroke-width="5" stroke-linecap="round" stroke-linejoin="round" stroke-miterlimit="10" x1="8.107" y1="119.197" x2="117.436" y2="119.197"/>
	
		<polygon fill="none" stroke="#FF0000" stroke-width="5" stroke-linecap="round" stroke-linejoin="round" stroke-miterlimit="10" points="
		55.354,37.771 68.741,18.564 121.984,55.681 77.923,118.889 29.14,118.666 8.833,104.512 40.619,58.908 	"/>
</g>
<g id="_x31_00" display="none">
	
		<line display="inline" fill="none" stroke="#FF0000" stroke-width="5" stroke-linecap="round" stroke-linejoin="round" stroke-miterlimit="10" x1="8.107" y1="119.197" x2="117.436" y2="119.197"/>
	
		<polygon display="inline" fill="#FF0000" stroke="#FF0000" stroke-width="5" stroke-linecap="round" stroke-linejoin="round" stroke-miterlimit="10" points="
		55.354,37.771 68.741,18.564 121.984,55.681 77.923,118.889 29.14,118.666 8.833,104.512 40.619,58.908 	"/>
</g>
<g id="_x35_0">
	
		<line fill="none" stroke="#FF0000" stroke-width="5" stroke-linecap="round" stroke-linejoin="round" stroke-miterlimit="10" x1="8.107" y1="119.197" x2="117.436" y2="119.197"/>
	
		<polygon fill="#FF0000" stroke="#FF0000" stroke-width="5" stroke-linecap="round" stroke-linejoin="round" stroke-miterlimit="10" points="
		93.484,96.564 77.923,118.889 29.14,118.666 8.833,104.512 40.619,58.908 	"/>
</g>
<g id="_x35_0_-_copie">
	
		<line fill="none" stroke="#FF0000" stroke-width="5" stroke-linecap="round" stroke-linejoin="round" stroke-miterlimit="10" x1="8.107" y1="119.197" x2="117.436" y2="119.197"/>
	
		<polygon fill="#FF0000" stroke="#FF0000" stroke-width="5" stroke-linecap="round" stroke-linejoin="round" stroke-miterlimit="10" points="
		107.913,76.456 77.923,118.889 29.14,118.666 8.833,104.512 55.048,38.8 	"/>
</g>
</svg>
