<?xml version="1.0" encoding="utf-8"?>
<!-- Generator: Adobe Illustrator 16.0.0, SVG Export Plug-In . SVG Version: 6.00 Build 0)  -->
<!DOCTYPE svg PUBLIC "-//W3C//DTD SVG 1.1//EN" "http://www.w3.org/Graphics/SVG/1.1/DTD/svg11.dtd">
<svg version="1.1" id="Calque_1" xmlns="http://www.w3.org/2000/svg" xmlns:xlink="http://www.w3.org/1999/xlink" x="0px" y="0px"
	 width="128px" height="128px" viewBox="0 0 128 128" enable-background="new 0 0 128 128" xml:space="preserve">
<g id="Calque_3">
</g>
<path fill="#FF0000" d="M64.922,52.971c8.184,0,14.825,6.636,14.825,14.82c0,8.187-6.642,14.818-14.825,14.818
	c-8.182,0-14.821-6.632-14.821-14.818C50.101,59.607,56.74,52.971,64.922,52.971z"/>
<path fill="#FF0000" d="M53.834,48.846l-17.57-29.14c0,0,11.9-7.905,29.28-7.905c17.377,0,30.665,8.715,30.665,8.715L77.137,48.846"
	/>
<path fill="#FF0000" d="M90.617,68.631l34.03,0.514c0,0,0.408,14.272-8.788,29.022s-23.631,21.406-23.631,21.406L78.289,88.398"/>
<path fill="#FF0000" d="M53.635,90.418l-16.397,29.815c0,0-12.807-6.324-21.525-21.362C6.994,83.839,7.875,67.97,7.875,67.97
	l34.072,2.295"/>
</svg>
