<?xml version="1.0" encoding="utf-8"?>
<!-- Generator: Adobe Illustrator 16.0.0, SVG Export Plug-In . SVG Version: 6.00 Build 0)  -->
<!DOCTYPE svg PUBLIC "-//W3C//DTD SVG 1.1//EN" "http://www.w3.org/Graphics/SVG/1.1/DTD/svg11.dtd">
<svg version="1.1" id="Calque_1" xmlns="http://www.w3.org/2000/svg" xmlns:xlink="http://www.w3.org/1999/xlink" x="0px" y="0px"
	 width="128px" height="128px" viewBox="0 0 128 128" enable-background="new 0 0 128 128" xml:space="preserve">
<g id="Calque_3">
	<path fill="none" stroke="#FF0000" stroke-width="5" stroke-linecap="round" stroke-linejoin="round" stroke-miterlimit="10" d="
		M90.891,56.397c0,0-1.123,15.817-5.89,21.642c0,0,11.476,2.646,16.417,2.295c0,0,2.648-15.357,1.589-18.535L90.891,56.397z"/>
	<path fill="none" stroke="#FF0000" stroke-width="5" stroke-linecap="round" stroke-linejoin="round" stroke-miterlimit="10" d="
		M56.051,60.563c0,0-8.121,16.77-40.602,26.479c0,0,7.238,26.304,25.949,22.065l-7.061,3.178c0,0,6.355,5.826,14.828,9.18
		c0,0,28.461-21.463,35.835-43.426L56.051,60.563z"/>
	<path fill="none" stroke="#FF0000" stroke-width="5" stroke-linecap="round" stroke-linejoin="round" stroke-miterlimit="10" d="
		M49.166,121.465c0,0,19.242,0.883,25.244,0c0,0,16.416-11.298,25.419-41.308c0,0-8.12,0-14.828-2.118"/>
	<path fill="none" stroke="#FF0000" stroke-width="5" stroke-linecap="round" stroke-linejoin="round" stroke-miterlimit="10" d="
		M90.891,56.397l22.211-41.558c0.002-0.001-13.586-7.14-22.504-9.136l-16.26,44.033l-5.223-2.764c0,0-4.061-2.472-6.179,2.118
		c-2.118,4.59-8.65,9.357-7.768,10.416c0.883,1.059,29.833,18.535,29.833,18.535"/>
</g>
</svg>
