<?xml version="1.0" encoding="utf-8"?>
<!-- Generator: Adobe Illustrator 16.0.0, SVG Export Plug-In . SVG Version: 6.00 Build 0)  -->
<!DOCTYPE svg PUBLIC "-//W3C//DTD SVG 1.1//EN" "http://www.w3.org/Graphics/SVG/1.1/DTD/svg11.dtd">
<svg version="1.1" id="Calque_3" xmlns="http://www.w3.org/2000/svg" xmlns:xlink="http://www.w3.org/1999/xlink" x="0px" y="0px"
	 width="128px" height="128px" viewBox="0 0 128 128" enable-background="new 0 0 128 128" xml:space="preserve">
<path fill="none" stroke="#FF0000" stroke-width="5" stroke-miterlimit="10" d="M49.921,51.781l0.001,22.41H36.966l0.003,12.42
	c0,0,0.297,4.733-2.938,5.522c-2.162,0.527-3.352-0.79-4.348-1.785L4.361,65.027c-0.995-0.996-0.996-2.61,0-3.606l25.656-25.657
	c0.996-0.996,3.48-2.488,5.528-0.935c1.513,1.187,1.417,3.314,1.417,3.314l0.001,13.637L49.921,51.781z"/>
<path fill="none" stroke="#FF0000" stroke-width="5" stroke-miterlimit="10" d="M78.479,74.429V52.018h12.957l-0.004-12.42
	c0,0-0.297-4.733,2.938-5.522c2.162-0.527,3.354,0.79,4.35,1.785l25.32,25.322c0.994,0.996,0.996,2.611,0,3.607L98.385,90.446
	c-0.997,0.995-3.48,2.488-5.529,0.935c-1.512-1.187-1.417-3.314-1.417-3.314V74.431L78.479,74.429z"/>
</svg>
