<?xml version="1.0" encoding="utf-8"?>
<!-- Generator: Adobe Illustrator 16.0.0, SVG Export Plug-In . SVG Version: 6.00 Build 0)  -->
<!DOCTYPE svg PUBLIC "-//W3C//DTD SVG 1.1//EN" "http://www.w3.org/Graphics/SVG/1.1/DTD/svg11.dtd">
<svg version="1.1" id="Calque_1" xmlns="http://www.w3.org/2000/svg" xmlns:xlink="http://www.w3.org/1999/xlink" x="0px" y="0px"
	 width="128px" height="128px" viewBox="0 0 128 128" enable-background="new 0 0 128 128" xml:space="preserve">
<line fill="none" stroke="#FF0000" stroke-width="8" stroke-linecap="round" stroke-linejoin="round" stroke-miterlimit="10" x1="2.6" y1="66.221" x2="21.292" y2="66.221"/>
<line fill="none" stroke="#FF0000" stroke-width="8" stroke-linecap="round" stroke-linejoin="round" stroke-miterlimit="10" x1="104.708" y1="66.221" x2="123.4" y2="66.221"/>
<line fill="none" stroke="#FF0000" stroke-width="8" stroke-linecap="round" stroke-linejoin="round" stroke-miterlimit="10" x1="63.816" y1="26.031" x2="63.816" y2="7.338"/>
<line fill="none" stroke="#FF0000" stroke-width="8" stroke-linecap="round" stroke-linejoin="round" stroke-miterlimit="10" x1="93.727" y1="38.014" x2="106.943" y2="24.796"/>
<line fill="none" stroke="#FF0000" stroke-width="8" stroke-linecap="round" stroke-linejoin="round" stroke-miterlimit="10" x1="33.409" y1="38.014" x2="20.19" y2="24.796"/>
<path fill="#FF0000" d="M32.277,100.52h-6.15c-3.871,0-7.01,3.143-7.01,7.016v13.133h89.156v-13.139
	c-0.002-3.873-3.142-7.01-7.012-7.01h-7.535 M93.727,92.375c0-8.606,0-26.217,0-28.725c0-3.738-4.098-27.104-30.033-27.104
	c-25.937,0-31.417,21.262-31.417,26.87c0,4.066,0,20.993,0,28.959"/>
<path fill="none" stroke="#FF0000" stroke-width="5" stroke-miterlimit="10" d="M93.727,100.52"/>
</svg>
