<?xml version="1.0" encoding="utf-8"?>
<!-- Generator: Adobe Illustrator 16.0.0, SVG Export Plug-In . SVG Version: 6.00 Build 0)  -->
<!DOCTYPE svg PUBLIC "-//W3C//DTD SVG 1.1//EN" "http://www.w3.org/Graphics/SVG/1.1/DTD/svg11.dtd">
<svg version="1.1" id="Calque_1" xmlns="http://www.w3.org/2000/svg" xmlns:xlink="http://www.w3.org/1999/xlink" x="0px" y="0px"
	 width="128px" height="128px" viewBox="0 0 128 128" enable-background="new 0 0 128 128" xml:space="preserve">
<path fill="none" stroke="#FF0000" stroke-width="5.465" stroke-miterlimit="10" d="M92.541,63.842V8.85
	c0-3.021-2.443-5.465-5.466-5.465h-75.83c-3.01,0-5.465,2.444-5.465,5.465v109.3c0,3.021,2.455,5.465,5.465,5.465h75.83
	c3.021,0,5.466-2.444,5.466-5.465v-6.267"/>
<g>
	<path fill="#FF0000" d="M51.697,104.701H27.121V70.63h8.787v27.479h15.79v6.592H51.697z"/>
	<path fill="#FF0000" d="M90.111,87.677c0,5.433-1.559,9.745-4.663,12.941c-3.117,3.196-7.419,4.793-12.905,4.793
		c-5.477,0-9.772-1.597-12.889-4.793c-3.108-3.196-4.665-7.509-4.665-12.941c0-5.477,1.556-9.805,4.665-12.985
		c3.117-3.181,7.413-4.771,12.889-4.771c5.454,0,9.756,1.591,12.884,4.771C88.555,77.872,90.111,82.2,90.111,87.677z M78.467,96.307
		c0.854-1.041,1.484-2.264,1.9-3.678c0.416-1.408,0.619-3.068,0.619-4.975c0-2.043-0.235-3.783-0.717-5.219
		c-0.469-1.432-1.088-2.595-1.846-3.476c-0.779-0.918-1.676-1.579-2.689-1.989c-1.014-0.418-2.07-0.619-3.17-0.619
		c-1.11,0-2.168,0.196-3.148,0.592c-0.982,0.399-1.891,1.057-2.712,1.97c-0.759,0.854-1.388,2.032-1.868,3.532
		c-0.48,1.506-0.715,3.25-0.715,5.23c0,2.027,0.235,3.758,0.693,5.182c0.471,1.432,1.078,2.59,1.848,3.49
		c0.758,0.902,1.654,1.563,2.679,1.991c1.015,0.427,2.093,0.64,3.224,0.64c1.133,0,2.199-0.219,3.225-0.649
		C76.813,97.893,77.709,97.219,78.467,96.307z"/>
	<path fill="#FF0000" d="M126.953,102.759c-1.526,0.593-3.544,1.185-6.063,1.771c-2.521,0.588-5.027,0.882-7.531,0.882
		c-5.795,0-10.332-1.574-13.614-4.724c-3.276-3.154-4.915-7.504-4.915-13.055c0-5.294,1.654-9.563,4.964-12.804
		c3.31-3.242,7.925-4.864,13.845-4.864c2.24,0,4.375,0.203,6.403,0.608c2.028,0.401,4.285,1.209,6.772,2.415v7.982h-0.982
		c-0.428-0.318-1.051-0.772-1.878-1.359c-0.822-0.588-1.617-1.09-2.375-1.5c-0.886-0.485-1.922-0.907-3.101-1.26
		c-1.187-0.348-2.439-0.522-3.77-0.522c-1.553,0-2.967,0.224-4.232,0.683c-1.265,0.459-2.4,1.158-3.41,2.108
		c-0.959,0.913-1.717,2.075-2.272,3.489c-0.562,1.41-0.838,3.037-0.838,4.885c0,3.768,0.998,6.648,3,8.65
		c1.995,1.996,4.946,2.994,8.854,2.994c0.336,0,0.703-0.006,1.109-0.021c0.405-0.018,0.773-0.038,1.109-0.07v-6.682h-6.793v-6.432
		h15.717V102.759z"/>
</g>
</svg>
