<?xml version="1.0" encoding="utf-8"?>
<!-- Generator: Adobe Illustrator 16.0.0, SVG Export Plug-In . SVG Version: 6.00 Build 0)  -->
<!DOCTYPE svg PUBLIC "-//W3C//DTD SVG 1.1//EN" "http://www.w3.org/Graphics/SVG/1.1/DTD/svg11.dtd">
<svg version="1.1" id="Calque_1" xmlns="http://www.w3.org/2000/svg" xmlns:xlink="http://www.w3.org/1999/xlink" x="0px" y="0px"
	 width="128px" height="128px" viewBox="0 0 128 128" enable-background="new 0 0 128 128" xml:space="preserve">
<path fill="none" stroke="#FF0000" stroke-width="5" stroke-linecap="round" stroke-linejoin="round" stroke-miterlimit="10" d="
	M98.368,103.986c0,0-12.831,12.59-30.904,12.59c-18.068,0-54.759-9.576-54.759-55.034H3.422l16.404-26.239l15.332,25.972
	c0,0-6.478,0-8.215,0c0,0-2.187,50.665,40.254,50.665C87.902,111.93,98.368,103.986,98.368,103.986L98.368,103.986z"/>
<path fill="none" stroke="#FF0000" stroke-width="5" stroke-linecap="round" stroke-linejoin="round" stroke-miterlimit="10" d="
	M28.952,25.518c0,0,12.836-12.595,30.909-12.595c18.063,0,54.759,9.581,54.759,55.031h9.288l-16.415,26.253L92.162,68.216
	c0,0,6.479,0,8.215,0c0,0,2.188-50.654-40.249-50.654C39.422,17.585,28.952,25.518,28.952,25.518L28.952,25.518z"/>
</svg>
