<?xml version="1.0" encoding="utf-8"?>
<!-- Generator: Adobe Illustrator 16.0.0, SVG Export Plug-In . SVG Version: 6.00 Build 0)  -->
<!DOCTYPE svg PUBLIC "-//W3C//DTD SVG 1.1//EN" "http://www.w3.org/Graphics/SVG/1.1/DTD/svg11.dtd">
<svg version="1.1" id="Calque_1" xmlns="http://www.w3.org/2000/svg" xmlns:xlink="http://www.w3.org/1999/xlink" x="0px" y="0px"
	 width="128px" height="128px" viewBox="0 0 128 128" enable-background="new 0 0 128 128" xml:space="preserve">
<g>
	<g>
		<path fill="none" stroke="#FF0000" stroke-width="5" stroke-linecap="round" stroke-linejoin="round" stroke-miterlimit="10" d="
			M63.019,76.555h35.334c8.311,0,15.108-6.799,15.108-15.108c0-6.428-4.073-11.936-9.761-14.11c0.404-1.973,0.617-4.016,0.617-6.11
			c0-16.688-13.528-30.218-30.217-30.218c-13.083,0-24.189,8.329-28.395,19.961c-1.971-0.823-4.134-1.281-6.404-1.281
			c-9.194,0-16.647,7.453-16.647,16.647c0,0.541,0.031,1.071,0.08,1.599c-4.965,2.481-8.404,7.608-8.404,13.512
			c0,8.31,6.799,15.108,15.109,15.108h10.101"/>
		<path fill="none" stroke="#FF0000" stroke-width="5" stroke-linecap="round" stroke-linejoin="round" stroke-miterlimit="10" d="
			M21.379,48.703c-3.478-4.797-4.775-9.609-4.775-15.988c0-16.089,13.043-29.134,29.134-29.134c8.012,0,15.271,3.236,20.538,8.473"
			/>
	</g>
	<g>
		<g>
			<path fill="none" stroke="#FF0000" stroke-width="5" stroke-linecap="round" stroke-linejoin="round" stroke-miterlimit="10" d="
				M59.444,85.125c0,4.232-3.433,7.668-7.669,7.668c-4.235,0-7.668-3.436-7.668-7.668c0-4.236,7.668-15.855,7.668-15.855
				S59.444,80.889,59.444,85.125z"/>
		</g>
		<g>
			<path fill="none" stroke="#FF0000" stroke-width="5" stroke-linecap="round" stroke-linejoin="round" stroke-miterlimit="10" d="
				M83.689,99.027c0,4.236-3.435,7.668-7.668,7.668c-4.235,0-7.67-3.432-7.67-7.668c0-4.233,7.67-15.854,7.67-15.854
				S83.689,94.794,83.689,99.027z"/>
		</g>
		<g>
			<path fill="none" stroke="#FF0000" stroke-width="5" stroke-linecap="round" stroke-linejoin="round" stroke-miterlimit="10" d="
				M65.688,115.896c0,4.233-3.433,7.666-7.667,7.666c-4.234,0-7.667-3.433-7.667-7.666c0-4.235,7.667-15.855,7.667-15.855
				S65.688,111.661,65.688,115.896z"/>
		</g>
	</g>
</g>
</svg>
