<?xml version="1.0" encoding="utf-8"?>
<!-- Generator: Adobe Illustrator 16.0.0, SVG Export Plug-In . SVG Version: 6.00 Build 0)  -->
<!DOCTYPE svg PUBLIC "-//W3C//DTD SVG 1.1//EN" "http://www.w3.org/Graphics/SVG/1.1/DTD/svg11.dtd">
<svg version="1.1" id="Calque_1" xmlns="http://www.w3.org/2000/svg" xmlns:xlink="http://www.w3.org/1999/xlink" x="0px" y="0px"
	 width="128px" height="128px" viewBox="0 0 128 128" enable-background="new 0 0 128 128" xml:space="preserve">
<g id="Calque_1_1_" xmlns:inkscape="http://www.inkscape.org/namespaces/inkscape" xmlns:svg="http://www.w3.org/2000/svg" xmlns:sodipodi="http://sodipodi.sourceforge.net/DTD/sodipodi-0.dtd" xmlns:rdf="http://www.w3.org/1999/02/22-rdf-syntax-ns#" xmlns:cc="http://creativecommons.org/ns#" xmlns:dc="http://purl.org/dc/elements/1.1/" inkscape:version="1.0 (4035a4fb49, 2020-05-01)" sodipodi:docname="iconView.svg" display="none">
	
		<sodipodi:namedview  id="namedview20" inkscape:zoom="5.7421875" showgrid="false" objecttolerance="10" guidetolerance="10" inkscape:cx="64" inkscape:cy="64" borderopacity="1" bordercolor="#666666" pagecolor="#ffffff" gridtolerance="10" inkscape:window-width="1920" inkscape:current-layer="Calque_1" inkscape:pageshadow="2" inkscape:pageopacity="0" inkscape:window-maximized="1" inkscape:window-y="-8" inkscape:window-x="-8" inkscape:window-height="1017">
		</sodipodi:namedview>
	<g display="inline">
		<path fill="#FF0000" d="M120.325,63.404c-0.155-0.111-22.396-37.598-56.307-37.775C30.12,25.806,7.873,63.293,7.712,63.404
			L6.987,64.6L7.7,65.814c0.149,0.111,21.894,37.604,56.317,37.775c34.436-0.171,56.168-37.664,56.317-37.775l0.713-1.215
			L120.325,63.404z M63.482,94.936C47.014,94.896,22.839,81.555,22.8,64.609c0.039-16.956,24.208-30.293,40.683-30.321
			C79.95,34.316,104.509,47.04,104.547,64C104.509,80.95,79.95,94.896,63.482,94.936z"/>
	</g>
</g>
<g id="Calque_3">
	<path fill="#FF0000" d="M64.02,50.575c-7.518,0.01-13.824,6.107-13.854,14.034c0.03,7.918,6.336,14.023,13.854,14.033
		c7.52-0.01,13.824-6.115,13.856-14.033C77.85,56.683,71.54,50.585,64.02,50.575z"/>
	<path fill="none" stroke="#FF0000" stroke-width="5" stroke-miterlimit="10" d="M64,41.733
		c-12.256,0.017-22.533,9.955-22.583,22.876C41.467,77.518,51.744,87.471,64,87.486c12.255-0.018,22.533-9.971,22.584-22.877
		C86.542,51.688,76.255,41.75,64,41.733z"/>
</g>
<g id="Calque_2">
	<path fill="none" stroke="#FF0000" stroke-width="5" stroke-miterlimit="10" d="M120.307,63.404
		C120.15,63.293,97.91,25.806,64,25.628C30.102,25.806,7.854,63.293,7.694,63.404L6.97,64.6l0.713,1.215
		C7.832,65.926,29.576,103.419,64,103.59c34.436-0.171,56.168-37.664,56.316-37.775l0.713-1.215L120.307,63.404z"/>
</g>
<line fill="none" stroke="#FF0000" stroke-width="10" stroke-linecap="round" stroke-miterlimit="10" x1="111.5" y1="15.5" x2="20.5" y2="112.5"/>
</svg>
