<?xml version="1.0" encoding="utf-8"?>
<!-- Generator: Adobe Illustrator 16.0.0, SVG Export Plug-In . SVG Version: 6.00 Build 0)  -->
<!DOCTYPE svg PUBLIC "-//W3C//DTD SVG 1.1//EN" "http://www.w3.org/Graphics/SVG/1.1/DTD/svg11.dtd">
<svg version="1.1" id="Calque_2_-_copie_2" xmlns="http://www.w3.org/2000/svg" xmlns:xlink="http://www.w3.org/1999/xlink" x="0px"
	 y="0px" width="384px" height="128px" viewBox="0 0 384 128" enable-background="new 0 0 384 128" xml:space="preserve">
<rect x="6" y="7.961" fill="none" stroke="#FF0000" stroke-width="5" stroke-linecap="round" stroke-linejoin="round" stroke-miterlimit="10" width="78.523" height="49.777"/>
<rect x="153" y="39.996" fill="#FF0000" stroke="#FF0000" stroke-width="5" stroke-linecap="round" stroke-linejoin="round" stroke-miterlimit="10" width="78.523" height="49.777"/>
<rect x="6" y="71.216" fill="none" stroke="#FF0000" stroke-width="5" stroke-linecap="round" stroke-linejoin="round" stroke-miterlimit="10" width="78.523" height="49.779"/>
<polyline fill="none" stroke="#FF0000" stroke-width="5" stroke-linecap="round" stroke-linejoin="round" stroke-miterlimit="10" points="
	86.55,32.037 120.342,32.037 120.342,96.105 86.55,96.105 "/>
<rect x="299.333" y="71.218" fill="none" stroke="#FF0000" stroke-width="5" stroke-linecap="round" stroke-linejoin="round" stroke-miterlimit="10" width="78.523" height="49.777"/>
<rect x="299.333" y="7.961" fill="none" stroke="#FF0000" stroke-width="5" stroke-linecap="round" stroke-linejoin="round" stroke-miterlimit="10" width="78.523" height="49.779"/>
<g>
	<g>
		<polyline fill="none" stroke="#FF0000" stroke-width="5" stroke-linecap="round" stroke-linejoin="round" points="263.515,64.885 
			263.515,32.851 286.543,32.851 		"/>
		<g>
			<polygon fill="#FF0000" points="284.354,40.33 297.307,32.852 284.354,25.372 			"/>
		</g>
	</g>
</g>
<g>
	<g>
		<polyline fill="none" stroke="#FF0000" stroke-width="5" stroke-linecap="round" stroke-linejoin="round" points="263.515,64.885 
			263.515,96.919 286.543,96.919 		"/>
		<g>
			<polygon fill="#FF0000" points="284.354,104.398 297.307,96.92 284.354,89.44 			"/>
		</g>
	</g>
</g>
<g>
	<g>
		
			<line fill="none" stroke="#FF0000" stroke-width="5" stroke-linecap="round" stroke-linejoin="round" x1="123.342" y1="64.885" x2="140.236" y2="64.885"/>
		<g>
			<polygon fill="#FF0000" points="138.048,72.364 151,64.886 138.048,57.406 			"/>
		</g>
	</g>
</g>
<line fill="none" stroke="#FF0000" stroke-width="5" stroke-linecap="round" stroke-linejoin="round" stroke-miterlimit="10" x1="233.856" y1="64.885" x2="261.515" y2="64.885"/>
</svg>
