<?xml version="1.0" encoding="utf-8"?>
<!-- Generator: Adobe Illustrator 16.0.0, SVG Export Plug-In . SVG Version: 6.00 Build 0)  -->
<!DOCTYPE svg PUBLIC "-//W3C//DTD SVG 1.1//EN" "http://www.w3.org/Graphics/SVG/1.1/DTD/svg11.dtd">
<svg version="1.1" xmlns="http://www.w3.org/2000/svg" xmlns:xlink="http://www.w3.org/1999/xlink" x="0px" y="0px" width="128px"
	 height="128px" viewBox="0 0 128 128" enable-background="new 0 0 128 128" xml:space="preserve">
<g id="Calque_2">
</g>
<g id="Calque_1">
	<path fill="none" stroke="#FF0000" stroke-width="5" stroke-linecap="round" stroke-linejoin="round" stroke-miterlimit="10" d="
		M30.412,64.057c0,0,33.58-14.433,28.547-53.121c2.185-6.176,10.302-1.204,10.302-1.204s8.283,4.285,6.998,20.075
		c0,0-1.574,17.299-1.574,18.872c0,0-0.863,5.287,5.803,5.018l34.113-0.277c0,0,12.252,6.282,0.416,15.53
		c0,0,10.023,8.662-2.219,17.195c0,0,10.24,7.863-1.684,17.445c0,0,8.73,7.666-2.129,15.545H45.318l-14.906-4.047"/>
	
		<rect x="7.826" y="56.995" fill="none" stroke="#FF0000" stroke-width="5" stroke-linecap="round" stroke-linejoin="round" stroke-miterlimit="10" width="22.586" height="64.915"/>
</g>
</svg>
