<?xml version="1.0" encoding="utf-8"?>
<!-- Generator: Adobe Illustrator 16.0.0, SVG Export Plug-In . SVG Version: 6.00 Build 0)  -->
<!DOCTYPE svg PUBLIC "-//W3C//DTD SVG 1.1//EN" "http://www.w3.org/Graphics/SVG/1.1/DTD/svg11.dtd">
<svg version="1.1" id="Calque_1" xmlns="http://www.w3.org/2000/svg" xmlns:xlink="http://www.w3.org/1999/xlink" x="0px" y="0px"
	 width="128px" height="128px" viewBox="0 0 128 128" enable-background="new 0 0 128 128" xml:space="preserve">
<path fill="none" stroke="#FF0000" stroke-width="5" stroke-miterlimit="10" d="M123.059,63.46
	c0,32.562-26.404,58.946-58.956,58.946S5.157,96.021,5.157,63.46c0-32.562,26.395-58.951,58.946-58.951
	S123.059,30.898,123.059,63.46z"/>
<circle fill="none" stroke="#FF0000" stroke-width="5" stroke-miterlimit="10" cx="65.032" cy="63.307" r="20.002"/>
<path fill="#FF0000" d="M106.324,104.578l-6.301-3.992c0,0-5.453-8.179-12.426-10.73c-6.975-2.543-9.701,4.973-15.205,11.334
	c-5.492,6.371-12.681-1.205-15.713-5.453c-3.033-4.247-7.27-6.963-16.368-5.452c-9.098,1.512-18.42,14.295-18.42,14.295
	s13.825,17.828,43.14,17.828C94.348,122.406,106.324,104.578,106.324,104.578z"/>
<line fill="none" stroke="#FF0000" stroke-width="5" stroke-linecap="round" stroke-miterlimit="10" x1="96.686" y1="79.971" x2="109.111" y2="79.971"/>
<line fill="none" stroke="#FF0000" stroke-width="5" stroke-linecap="round" stroke-miterlimit="10" x1="103.536" y1="63.46" x2="102.902" y2="53"/>
<line fill="none" stroke="#FF0000" stroke-width="5" stroke-linecap="round" stroke-miterlimit="10" x1="87.902" y1="36.938" x2="96.686" y2="40.578"/>
<line fill="none" stroke="#FF0000" stroke-width="5" stroke-linecap="round" stroke-miterlimit="10" x1="78.5" y1="21.178" x2="74.865" y2="31.185"/>
<line fill="none" stroke="#FF0000" stroke-width="5" stroke-linecap="round" stroke-miterlimit="10" x1="49.308" y1="26.181" x2="60.039" y2="27.238"/>
<line fill="none" stroke="#FF0000" stroke-width="5" stroke-linecap="round" stroke-miterlimit="10" x1="31.919" y1="32.997" x2="38.515" y2="40.578"/>
<line fill="none" stroke="#FF0000" stroke-width="5" stroke-linecap="round" stroke-miterlimit="10" x1="31.521" y1="55.731" x2="26.375" y2="65.125"/>
<line fill="none" stroke="#FF0000" stroke-width="5" stroke-linecap="round" stroke-miterlimit="10" x1="21.892" y1="77.25" x2="27.712" y2="87.251"/>
</svg>
