<?xml version="1.0" encoding="utf-8"?>
<!-- Generator: Adobe Illustrator 16.0.0, SVG Export Plug-In . SVG Version: 6.00 Build 0)  -->
<!DOCTYPE svg PUBLIC "-//W3C//DTD SVG 1.1//EN" "http://www.w3.org/Graphics/SVG/1.1/DTD/svg11.dtd">
<svg version="1.1" id="Calque_1" xmlns="http://www.w3.org/2000/svg" xmlns:xlink="http://www.w3.org/1999/xlink" x="0px" y="0px"
	 width="128px" height="128px" viewBox="0 0 128 128" enable-background="new 0 0 128 128" xml:space="preserve">
<path fill="none" stroke="#FF0000" stroke-width="5" stroke-linecap="round" stroke-linejoin="round" stroke-miterlimit="2.6131" d="
	M81.305,36.658c10.006,1.815,16.559,4.891,16.596,8.423c0.047,5.801-17.473,10.654-39.125,10.841
	c-21.653,0.191-39.256-4.354-39.312-10.159c-0.028-3.804,7.504-7.201,18.806-9.147 M97.898,45.081
	c0.263,31.63-17.069,57.418-38.713,57.604c-21.663,0.195-39.442-25.303-39.722-56.923 M91.88,91.383
	c8.261,3.117,13.384,7.485,13.431,12.34c0.074,9.789-20.496,17.92-45.965,18.135c-25.461,0.224-46.181-7.543-46.265-17.332
	c-0.046-4.854,4.994-9.297,13.216-12.572 M97.434,54.676c0.541-0.047,1.11-0.075,1.67-0.08c8.812-0.075,16.017,5.372,16.072,12.162
	c0.064,6.799-7.047,12.361-15.849,12.438c-2.938,0.037-5.685-0.562-8.054-1.605 M62.153,6.357
	C44.252,23.335,68.471,33.19,56.59,45.902 M70.497,6.288c-17.901,16.977,6.31,26.833-5.572,39.545 M53.306,6.437
	c-15.073,16.188,6.3,26.833-5.572,39.545"/>
</svg>
