<?xml version="1.0" encoding="utf-8"?>
<!-- Generator: Adobe Illustrator 16.0.0, SVG Export Plug-In . SVG Version: 6.00 Build 0)  -->
<!DOCTYPE svg PUBLIC "-//W3C//DTD SVG 1.1//EN" "http://www.w3.org/Graphics/SVG/1.1/DTD/svg11.dtd">
<svg version="1.1" id="Calque_1" xmlns="http://www.w3.org/2000/svg" xmlns:xlink="http://www.w3.org/1999/xlink" x="0px" y="0px"
	 width="128px" height="128px" viewBox="0 0 128 128" enable-background="new 0 0 128 128" xml:space="preserve">
<g>
	<path fill="none" stroke="#FF0000" stroke-width="5" stroke-linecap="round" stroke-linejoin="round" stroke-miterlimit="10" d="
		M114.685,19.024l8.307-1.06v81.337l-50.407,9.74c0,0-0.733,5.309-4.967,5.309c-4.237,0-8.389,0-8.389,0s-4.642,0.443-4.642-4.779
		L4.05,99.513L4.018,18.671l6.108,1.149"/>
	
		<polygon fill="none" stroke="#FF0000" stroke-width="5" stroke-linecap="round" stroke-linejoin="round" stroke-miterlimit="10" points="
		16.073,11.942 63.179,28.051 109.479,11.942 109.804,90.54 63.179,104.792 17.374,89.744 	"/>
	
		<line fill="none" stroke="#FF0000" stroke-width="5" stroke-linecap="round" stroke-linejoin="round" stroke-miterlimit="10" x1="63.179" y1="28.051" x2="63.179" y2="104.792"/>
	
		<line fill="none" stroke="#FF0000" stroke-width="5" stroke-linecap="round" stroke-linejoin="round" stroke-miterlimit="10" x1="73.724" y1="46.374" x2="97.83" y2="37.434"/>
	
		<line fill="none" stroke="#FF0000" stroke-width="5" stroke-linecap="round" stroke-linejoin="round" stroke-miterlimit="10" x1="73.724" y1="63.552" x2="97.83" y2="54.615"/>
	
		<line fill="none" stroke="#FF0000" stroke-width="5" stroke-linecap="round" stroke-linejoin="round" stroke-miterlimit="10" x1="73.724" y1="79.892" x2="97.83" y2="70.951"/>
</g>
<text transform="matrix(0.6307 0 0 1 27.9272 79.8887)" fill="#FF0000" font-family="'CourierNewPS-BoldMT'" font-size="71.816">i</text>
</svg>
