<?xml version="1.0" encoding="utf-8"?>
<!-- Generator: Adobe Illustrator 16.0.0, SVG Export Plug-In . SVG Version: 6.00 Build 0)  -->
<!DOCTYPE svg PUBLIC "-//W3C//DTD SVG 1.1//EN" "http://www.w3.org/Graphics/SVG/1.1/DTD/svg11.dtd">
<svg version="1.1" id="Calque_1" xmlns="http://www.w3.org/2000/svg" xmlns:xlink="http://www.w3.org/1999/xlink" x="0px" y="0px"
	 width="128px" height="128px" viewBox="0 0 128 128" enable-background="new 0 0 128 128" xml:space="preserve">
<path fill="none" stroke="#FF0000" stroke-width="5.2169" stroke-miterlimit="10" d="M122.352,110.715c0,1.604-1.3,2.904-2.91,2.904
	H71.624c-1.616,0-2.914-1.301-2.914-2.904V58.248c0-1.603,1.298-2.908,2.914-2.908h47.817c1.609,0,2.908,1.305,2.908,2.908v52.467
	H122.352z M68.389,66.396V58.78c0-1.682,1.355-3.041,3.036-3.041h36.188v-36.2c0-2.438-2.405-4.41-5.37-4.41H9.586
	c-2.959,0-5.37,1.967-5.37,4.41v73.793c0,2.436,2.411,4.402,5.37,4.402h58.803V66.396"/>
<path fill="none" stroke="#FF0000" stroke-width="4.8569" stroke-miterlimit="10" d="M112.201,110.531
	c0,1.707-1.055,3.088-2.362,3.088H83.118c-1.312,0-2.366-1.381-2.366-3.088V91.805c0-1.709,1.057-3.095,2.366-3.095h26.721
	c1.31,0,2.362,1.386,2.362,3.095V110.531L112.201,110.531z"/>
<path fill="none" stroke="#FF0000" stroke-width="4.523" stroke-miterlimit="10" d="M112.201,71.055c0,1.414-1.109,2.557-2.48,2.557
	H89.779c-1.369,0-2.48-1.146-2.48-2.557V57.949c0-1.413,1.111-2.554,2.48-2.554h19.941c1.37,0,2.479,1.151,2.479,2.554
	L112.201,71.055L112.201,71.055z"/>
<path fill="none" stroke="#FF0000" stroke-width="10.4338" stroke-miterlimit="10" d="M4.207,27.953h46.167 M50.369,38.058h24.453
	 M12.801,50.616H36.93 M36.93,62.025h20.051 M4.135,83.045h46.299"/>
</svg>
