<?xml version="1.0" encoding="utf-8"?>
<!-- Generator: Adobe Illustrator 16.0.0, SVG Export Plug-In . SVG Version: 6.00 Build 0)  -->
<!DOCTYPE svg PUBLIC "-//W3C//DTD SVG 1.1//EN" "http://www.w3.org/Graphics/SVG/1.1/DTD/svg11.dtd">
<svg version="1.1" id="Calque_1" xmlns="http://www.w3.org/2000/svg" xmlns:xlink="http://www.w3.org/1999/xlink" x="0px" y="0px"
	 width="128px" height="128px" viewBox="0 0 128 128" enable-background="new 0 0 128 128" xml:space="preserve">
<path fill="none" stroke="#FF0000" stroke-width="5" stroke-miterlimit="10" d="M122.982,118.061c0,3.338-2.7,6.051-6.051,6.051
	H17.323c-3.339,0-6.051-2.713-6.051-6.051V8.762c0-3.348,2.712-6.051,6.051-6.051h99.608c3.352,0,6.051,2.704,6.051,6.051V118.061
	L122.982,118.061z"/>
<path fill="none" stroke="#FF0000" stroke-width="5" stroke-miterlimit="10" d="M101.855,117.682c0,3.558-2.203,6.436-4.928,6.436
	H41.256c-2.725,0-4.929-2.878-4.929-6.436V78.667c0-3.558,2.204-6.437,4.929-6.437h55.672c2.725,0,4.93,2.902,4.93,6.437v39.015
	H101.855z"/>
<path fill="none" stroke="#FF0000" stroke-width="5" stroke-miterlimit="10" d="M101.855,35.428c0,2.949-2.311,5.339-5.17,5.339
	H55.143c-2.848,0-5.165-2.396-5.165-5.339V8.145c0-2.94,2.311-5.33,5.165-5.33h41.542c2.86,0,5.172,2.39,5.172,5.33v27.283H101.855z
	"/>
</svg>
