<?xml version="1.0" encoding="utf-8"?>
<!-- Generator: Adobe Illustrator 16.0.0, SVG Export Plug-In . SVG Version: 6.00 Build 0)  -->
<!DOCTYPE svg PUBLIC "-//W3C//DTD SVG 1.1//EN" "http://www.w3.org/Graphics/SVG/1.1/DTD/svg11.dtd">
<svg version="1.1" id="Calque_1" xmlns="http://www.w3.org/2000/svg" xmlns:xlink="http://www.w3.org/1999/xlink" x="0px" y="0px"
	 width="128px" height="128px" viewBox="0 0 128 128" enable-background="new 0 0 128 128" xml:space="preserve">
<g>
	
		<line fill="none" stroke="#E52420" stroke-width="5" stroke-linecap="round" stroke-linejoin="round" stroke-miterlimit="5" x1="76.488" y1="62.604" x2="76.488" y2="96.917"/>
	
		<line fill="none" stroke="#E52420" stroke-width="5" stroke-linecap="round" stroke-linejoin="round" stroke-miterlimit="5" x1="93.55" y1="79.752" x2="59.412" y2="79.752"/>
</g>
<path fill="none" stroke="#E52420" stroke-width="5" stroke-miterlimit="10" d="M120.219,64.744V41.126
	c0-2.945-2.436-5.329-5.445-5.329H38.172c-3.004,0-5.445,2.384-5.445,5.329v77.269c0,2.944,2.441,5.328,5.445,5.328h76.602
	c3.01,0,5.444-2.384,5.444-5.328v-7.183L120.219,64.744L120.219,64.744z"/>
<path fill="none" stroke="#E52420" stroke-width="5" stroke-miterlimit="10" d="M98.234,33V11.753c0-2.945-2.43-5.329-5.445-5.329
	H15.665c-3.005,0-5.446,2.383-5.446,5.329v77.269c0,2.944,2.441,5.328,5.446,5.328h16.834"/>
</svg>
