<?xml version="1.0" encoding="utf-8"?>
<!-- Generator: Adobe Illustrator 16.0.0, SVG Export Plug-In . SVG Version: 6.00 Build 0)  -->
<!DOCTYPE svg PUBLIC "-//W3C//DTD SVG 1.1//EN" "http://www.w3.org/Graphics/SVG/1.1/DTD/svg11.dtd">
<svg version="1.1" id="Calque_1" xmlns="http://www.w3.org/2000/svg" xmlns:xlink="http://www.w3.org/1999/xlink" x="0px" y="0px"
	 width="128px" height="128px" viewBox="0 0 128 128" enable-background="new 0 0 128 128" xml:space="preserve">
<path fill="none" stroke="#FF0000" stroke-width="5" stroke-linecap="round" stroke-linejoin="round" stroke-miterlimit="10" d="
	M61.517,73.682L5.095,25.198c-0.044,0.198-0.119,0.369-0.119,0.572v78.039c0,1.465,1.317,2.664,2.946,2.664H119.29
	c1.634,0,2.951-1.199,2.951-2.664V25.77c0-0.203-0.079-0.374-0.13-0.572L65.689,73.682C64.537,74.666,62.671,74.666,61.517,73.682
	L61.517,73.682z"/>
<path fill="none" stroke="#FF0000" stroke-width="5" stroke-linecap="round" stroke-linejoin="round" stroke-miterlimit="10" d="
	M5.095,25.208c0.307-1.196,1.416-2.109,2.827-2.109H119.29c1.405,0,2.53,0.914,2.821,2.109"/>
<path fill="none" stroke="#FF0000" stroke-width="5" stroke-linecap="round" stroke-linejoin="round" stroke-miterlimit="10" d="
	M119.285,23.099H7.917c-1.406,0-2.525,0.914-2.827,2.109l56.422,48.483c1.159,0.984,3.025,0.984,4.167,0l56.422-48.483
	C121.811,24.008,120.695,23.099,119.285,23.099L119.285,23.099z"/>
<line fill="none" stroke="#FF0000" stroke-width="5" stroke-linecap="round" stroke-linejoin="round" stroke-miterlimit="10" x1="79.42" y1="62.438" x2="115.79" y2="105.848"/>
<line fill="none" stroke="#FF0000" stroke-width="5" stroke-linecap="round" stroke-linejoin="round" stroke-miterlimit="10" x1="51.288" y1="64.893" x2="16.968" y2="105.857"/>
</svg>
